<svg id="ebeGpcYC1Jx1" xmlns="http://www.w3.org/2000/svg" xmlns:xlink="http://www.w3.org/1999/xlink" viewBox="0 0 600 600" shape-rendering="geometricPrecision" text-rendering="geometricPrecision"><style><![CDATA[#ebeGpcYC1Jx4_to {animation: ebeGpcYC1Jx4_to__to 2300ms linear infinite reverse forwards}@keyframes ebeGpcYC1Jx4_to__to { 0% {transform: translate(88.135972px,89.584995px)} 30.434783% {transform: translate(68.135972px,109.584995px)} 86.956522% {transform: translate(88.135972px,89.584995px)} 100% {transform: translate(88.135972px,89.584995px)}} #ebeGpcYC1Jx5_to {animation: ebeGpcYC1Jx5_to__to 2300ms linear infinite reverse forwards}@keyframes ebeGpcYC1Jx5_to__to { 0% {transform: translate(153.245003px,85.040001px)} 60.869565% {transform: translate(173.245003px,65.040001px)} 86.956522% {transform: translate(153.245003px,85.040001px)} 100% {transform: translate(153.245003px,85.040001px)}} #ebeGpcYC1Jx7_to {animation: ebeGpcYC1Jx7_to__to 2300ms linear infinite reverse forwards}@keyframes ebeGpcYC1Jx7_to__to { 0% {transform: translate(121.284996px,223.269989px)} 21.73913% {transform: translate(101.284996px,243.269989px)} 86.956522% {transform: translate(121.284996px,223.269989px)} 100% {transform: translate(121.284996px,223.269989px)}}]]></style><g transform="translate(177.364517 154.190003)"><path d="M5.99,72.13h29.23l48.2,48.7-48.2,49.82h-28.02l47.6-49.26L5.99,72.13Z" fill="#767bff"/><g id="ebeGpcYC1Jx4_to" transform="translate(88.135972,89.584995)"><path d="M36.28,173.15h-35l50-51.74L0,69.62h36.26l50.66,51.17Zm-23.19-5h21.07l45.76-47.31L34.17,74.62h-22.17l46.3,46.74ZM170.91,6.02v29.22l-48.69,48.2L72.4,35.24v-28.02l49.25,47.6l49.26-48.8Z" transform="translate(-85.455002,-89.584995)" fill="#767bff"/></g><g id="ebeGpcYC1Jx5_to" transform="translate(153.245003,85.040001)"><path d="M122.24,86.94L69.9,36.3v-35l51.73,50L173.41,0v36.28ZM74.9,34.18L122.2,80l46.21-45.8v-22.2L121.68,58.32L74.9,13.11Zm161.69,135.9h-29.22l-48.21-48.69l48.21-49.82h28.02l-47.61,49.26l48.81,49.25Z" transform="translate(-153.245003,-85.040001)" fill="#767bff"/></g><path d="M242.59,172.62h-36.27l-50.66-51.17l50.65-52.34h35l-50,51.73Zm-34.18-5h22.18l-46.3-46.73l45.2-46.78h-21.06l-45.77,47.3ZM22.16,285.63v-29.26l98.93-97.94l99.33,97.77v29.43l-98.77-98.58-99.49,98.58Z" fill="#767bff"/><g id="ebeGpcYC1Jx7_to" transform="translate(121.284996,223.269989)"><path d="M222.92,291.62l-101.27-101-102,101v-36.3l101.43-100.4L222.92,255.15ZM24.66,257.41v22.21l97-96.11l96.26,96.11v-22.37l-96.83-95.31Z" transform="translate(-121.284996,-223.269989)" fill="#767bff"/></g></g></svg>