<svg width="100%" height="100%" viewBox="0 0 478 661" version="1.1" xmlns="http://www.w3.org/2000/svg" xmlns:xlink="http://www.w3.org/1999/xlink" xml:space="preserve" xmlns:serif="http://www.serif.com/" style="fill-rule:evenodd;clip-rule:evenodd;stroke-linejoin:round;stroke-miterlimit:2;">
    <style>
        /*
         * Frame-swap animation between #guy-2 and #guy-3
         * - Uses steps(1) timing to switch instantly (no fading), suitable for pixel-art look
         * - #guy-2 shows first, then #guy-3; they alternate every half cycle
         * - Respects prefers-reduced-motion and defaults to first frame when reduced
         */
        #guy-2, #guy-3 { shape-rendering: crispEdges; }
        #guy-2 { opacity: 1; }
        #guy-3 { opacity: 0; }

        @keyframes frameOn {
            0%, 49.999% { opacity: 1; }
            50%, 100% { opacity: 0; }
        }
        @keyframes frameOff {
            0%, 49.999% { opacity: 0; }
            50%, 100% { opacity: 1; }
        }

        /* Adjust duration to taste (e.g., 0.9s, 1.2s) */
        #guy-2 { animation: frameOn 1.2s steps(1, end) infinite; }
        #guy-3 { animation: frameOff 1.2s steps(1, end) infinite; }

        @media (prefers-reduced-motion: reduce) {
            #guy-2, #guy-3 { animation: none !important; }
            #guy-2 { opacity: 1; }
            #guy-3 { opacity: 0; }
        }
    </style>
    <g transform="matrix(1,0,0,1,-1203.59,-1128.28)">
        <g transform="matrix(1,0,0,1,-644.31,0)">
            <g id="guy">
                <g id="guy-2">
                    <g transform="matrix(1,0,0,1,0,-3.83)">
                        <path d="M2214.85,1132.11L2214.85,1150.45L1958.11,1150.45L1958.11,1168.79L1939.77,1168.79L1939.77,1187.13L1921.43,1187.13L1921.43,1168.79L1903.09,1168.79L1903.09,1187.13L1884.75,1187.13L1884.75,1205.47L1903.09,1205.47L1903.09,1370.47L1921.43,1370.47L1921.43,1425.47L1939.77,1425.47L1939.77,1443.81L1958.11,1443.81L1958.11,1462.15L1976.45,1462.15L1976.45,1480.49L2178.17,1480.49L2178.17,1462.15L2196.52,1462.15L2196.52,1425.47L2214.85,1425.47L2214.85,1370.47L2196.52,1370.47L2196.52,1242.14L2214.85,1242.14L2214.85,1205.47L2233.19,1205.47L2233.19,1132.11L2214.85,1132.11Z" style="fill:rgb(207,163,129);fill-rule:nonzero;"/>
                    </g>
                    <g transform="matrix(1,0,0,1,0,-3.83)">
                        <path d="M2233.18,1755.67L2214.84,1755.67L2214.84,1737.33L2196.49,1737.33L2196.49,1700.63L2178.14,1700.63L2178.14,1682.29L2159.8,1682.29L2159.8,1627.26L2141.4,1627.26L2141.4,1608.93L2196.31,1608.93L2196.31,1572.25L2178,1572.25L2178,1535.58L2214.68,1535.58L2214.68,1498.9L2196.34,1498.9L2196.34,1517.24L2159.66,1517.24L2159.66,1498.9L2123,1498.9L2123,1517.24L2013,1517.24L2013,1498.9L1976.32,1498.9L1976.32,1517.24L1939.65,1517.24L1939.65,1498.9L1921.31,1498.9L1921.31,1535.58L1958,1535.58L1958,1572.25L1939.67,1572.25L1939.67,1608.93L1994.67,1608.93L1994.67,1627.27L1976.34,1627.27L1976.34,1682.27L1958,1682.27L1958,1700.61L1939.66,1700.61L1939.66,1719L1921.31,1719L1921.31,1755.69L1902.96,1755.69L1902.96,1774L1884.6,1774L1884.6,1792.35L2269.88,1792.35L2269.88,1774L2233.18,1774L2233.18,1755.67ZM2013,1774L2013,1737.31L2031.35,1737.31L2031.35,1719L2123.08,1719L2123.08,1737.35L2141.43,1737.35L2141.43,1774L2013,1774Z" style="fill:rgb(50,55,103);fill-rule:nonzero;"/>
                    </g>
                    <path d="M2288.22,1770.19L2324.91,1770.19L2324.91,1788.54L2288.22,1788.54L2288.22,1770.19ZM1847.9,1770.2L1866.25,1770.2L1866.25,1788.55L1847.9,1788.55L1847.9,1770.2Z" style="fill:rgb(50,55,103);fill-rule:nonzero;"/>
                    <g opacity="0.59">
                        <rect x="1884.68" y="1770.19" width="385.28" height="18.35" style="fill:rgb(165,132,109);fill-rule:nonzero;"/>
                    </g>
                    <rect x="2233.27" y="1770.19" width="18.35" height="18.35" style="fill:rgb(106,74,47);fill-rule:nonzero;"/>
                    <path d="M2141.53,1770.19L2233.26,1770.19L2233.26,1788.54L2141.53,1788.54L2141.53,1770.19ZM1994.76,1770.19L1994.76,1751.85L1976.41,1751.85L1976.41,1770.19L1939.72,1770.19L1939.72,1788.54L2013.11,1788.54L2013.11,1770.19L1994.76,1770.19Z" style="fill:rgb(61,37,31);fill-rule:nonzero;"/>
                    <path d="M1921.37,1770.19L1939.72,1770.19L1939.72,1788.54L1921.37,1788.54L1921.37,1770.19ZM2196.57,1751.85L2233.26,1751.85L2233.26,1770.2L2196.57,1770.2L2196.57,1751.85ZM1939.72,1751.85L1976.41,1751.85L1976.41,1770.2L1939.72,1770.2L1939.72,1751.85Z" style="fill:rgb(106,74,47);fill-rule:nonzero;"/>
                    <rect x="2196.57" y="1733.5" width="18.35" height="18.35" style="fill:rgb(61,131,166);fill-rule:nonzero;"/>
                    <rect x="1958.07" y="1715.15" width="36.69" height="18.35" style="fill:rgb(42,81,126);fill-rule:nonzero;"/>
                    <rect x="2178.23" y="1696.81" width="18.35" height="18.35" style="fill:rgb(61,131,166);fill-rule:nonzero;"/>
                    <rect x="1976.41" y="1696.81" width="18.35" height="18.35" style="fill:rgb(50,55,103);fill-rule:nonzero;"/>
                    <rect x="2159.88" y="1678.46" width="18.35" height="18.35" style="fill:rgb(61,131,166);fill-rule:nonzero;"/>
                    <path d="M2123.19,1678.46L2123.19,1696.81L2141.53,1696.81L2141.53,1715.15L2159.88,1715.15L2159.88,1751.85L2196.57,1751.85L2196.57,1715.15L2178.23,1715.15L2178.23,1696.81L2159.88,1696.81L2159.88,1678.46L2123.19,1678.46Z" style="fill:rgb(42,81,126);fill-rule:nonzero;"/>
                    <rect x="2141.53" y="1660.11" width="18.35" height="18.35" style="fill:rgb(61,131,166);fill-rule:nonzero;"/>
                    <g>
                        <g opacity="0.59">
                            <rect x="2288.31" y="1770.19" width="36.69" height="18.35" style="fill:rgb(165,132,109);fill-rule:nonzero;"/>
                        </g>
                        <g opacity="0.59">
                            <rect x="1847.99" y="1770.19" width="18.35" height="18.35" style="fill:rgb(165,132,109);fill-rule:nonzero;"/>
                        </g>
                    </g>
                    <path d="M1976.41,1770.19L1976.41,1751.85L1958.07,1751.85L1958.07,1770.19L1921.37,1770.19L1921.37,1788.54L1994.76,1788.54L1994.76,1770.19L1976.41,1770.19Z" style="fill:rgb(61,37,31);fill-rule:nonzero;"/>
                    <rect x="1903.03" y="1770.19" width="18.35" height="18.35" style="fill:rgb(106,74,47);fill-rule:nonzero;"/>
                    <rect x="1921.37" y="1751.85" width="36.69" height="18.35" style="fill:rgb(106,74,47);fill-rule:nonzero;"/>
                    <rect x="1939.72" y="1715.15" width="36.69" height="18.35" style="fill:rgb(42,81,126);fill-rule:nonzero;"/>
                    <path d="M1958.07,1696.81L1976.42,1696.81L1976.42,1715.16L1958.07,1715.16L1958.07,1696.81ZM1994.76,1678.46L2013.11,1678.46L2013.11,1696.81L1994.76,1696.81L1994.76,1678.46Z" style="fill:rgb(50,55,103);fill-rule:nonzero;"/>
                    <rect x="2123.19" y="1623.42" width="18.35" height="18.35" style="fill:rgb(62,137,72);fill-rule:nonzero;"/>
                    <path d="M1958.07,1770.19L1958.07,1751.85L1939.72,1751.85L1939.72,1770.19L1903.03,1770.19L1903.03,1788.54L1976.41,1788.54L1976.41,1770.19L1958.07,1770.19Z" style="fill:rgb(61,37,31);fill-rule:nonzero;"/>
                    <path d="M1884.68,1770.19L1903.03,1770.19L1903.03,1788.54L1884.68,1788.54L1884.68,1770.19ZM1903.03,1751.85L1939.72,1751.85L1939.72,1770.2L1903.03,1770.2L1903.03,1751.85Z" style="fill:rgb(106,74,47);fill-rule:nonzero;"/>
                    <rect x="1921.37" y="1715.15" width="36.69" height="18.35" style="fill:rgb(42,81,126);fill-rule:nonzero;"/>
                    <path d="M1939.72,1696.81L1958.07,1696.81L1958.07,1715.16L1939.72,1715.16L1939.72,1696.81ZM1976.41,1678.46L1994.76,1678.46L1994.76,1696.81L1976.41,1696.81L1976.41,1678.46Z" style="fill:rgb(50,55,103);fill-rule:nonzero;"/>
                    <path d="M1921.38,1733.5L1939.73,1733.5L1939.73,1751.85L1921.38,1751.85L1921.38,1733.5ZM1939.72,1696.81L1958.07,1696.81L1958.07,1715.16L1939.72,1715.16L1939.72,1696.81ZM1958.07,1678.46L1976.42,1678.46L1976.42,1696.81L1958.07,1696.81L1958.07,1678.46Z" style="fill:rgb(61,131,166);fill-rule:nonzero;"/>
                    <path d="M1976.41,1678.46L1976.41,1696.81L1958.07,1696.81L1958.07,1715.15L1939.72,1715.15L1939.72,1751.85L1976.41,1751.85L1976.41,1715.15L1994.76,1715.15L1994.76,1696.81L2013.11,1696.81L2013.11,1678.46L1976.41,1678.46Z" style="fill:rgb(42,81,126);fill-rule:nonzero;"/>
                    <rect x="1976.41" y="1660.11" width="18.35" height="18.35" style="fill:rgb(61,131,166);fill-rule:nonzero;"/>
                    <path d="M2159.88,1751.85L2159.88,1715.15L2141.53,1715.15L2141.53,1696.81L2123.18,1696.81L2123.18,1678.46L2141.53,1678.46L2141.53,1660.11L1994.76,1660.11L1994.76,1678.46L2013.11,1678.46L2013.11,1696.81L1994.76,1696.81L1994.76,1715.15L1958.07,1715.15L1958.07,1733.5L1921.37,1733.5L1921.37,1751.85L1958.07,1751.85L1958.07,1770.19L2013.11,1770.19L2013.11,1733.5L2031.45,1733.5L2031.45,1715.15L2123.18,1715.15L2123.18,1733.5L2141.53,1733.5L2141.53,1770.19L2196.57,1770.19L2196.57,1751.85L2159.88,1751.85Z" style="fill:rgb(50,55,103);fill-rule:nonzero;"/>
                    <path d="M1976.38,1476.72L1994.71,1476.72L1994.71,1458.39L2013.05,1458.39L2013.05,1440.05L1958.04,1440.05L1958.04,1458.39L1976.38,1458.39L1976.38,1476.72ZM1939.7,1421.71L1958.04,1421.71L1958.04,1440.05L1939.7,1440.05L1939.7,1421.71ZM1939.7,1330.01L1903.02,1330.01L1903.02,1348.35L1921.36,1348.35L1921.36,1421.7L1939.7,1421.7L1939.7,1330.01Z" style="fill:rgb(181,126,105);fill-rule:nonzero;"/>
                    <rect x="1903.02" y="1348.35" width="18.34" height="18.34" style="fill:rgb(84,43,38);fill-rule:nonzero;"/>
                    <rect x="1994.71" y="1311.67" width="18.34" height="36.68" style="fill:rgb(35,30,43);fill-rule:nonzero;"/>
                    <rect x="1903.02" y="1311.67" width="18.34" height="18.34" style="fill:rgb(207,163,129);fill-rule:nonzero;"/>
                    <rect x="2104.75" y="1238.32" width="18.34" height="18.34" style="fill:rgb(84,43,38);fill-rule:nonzero;"/>
                    <rect x="1903.02" y="1164.96" width="18.34" height="18.34" style="fill:rgb(107,58,36);fill-rule:nonzero;"/>
                    <path d="M2049.73,1219.98L2049.73,1201.64L2031.39,1201.64L2031.39,1183.3L1994.72,1183.3L1994.72,1201.64L2013.06,1201.64L2013.06,1274.99L2031.39,1274.99L2031.39,1293.33L2049.73,1293.33L2049.73,1256.66L2068.07,1256.66L2068.07,1238.32L2214.78,1238.32L2214.78,1219.98L2049.73,1219.98Z" style="fill:rgb(84,43,38);fill-rule:nonzero;"/>
                    <rect x="2013.05" y="1623.44" width="18.34" height="18.34" style="fill:rgb(6,59,108);fill-rule:nonzero;"/>
                    <path d="M2141.53,1623.42L2141.53,1605.08L2123.19,1605.08L2123.19,1586.73L2013.11,1586.73L2013.11,1605.08L1994.76,1605.1L1994.76,1623.44L1976.42,1623.44L1976.41,1660.11L2159.88,1660.11L2159.88,1623.42L2141.53,1623.42Z" style="fill:rgb(99,199,77);fill-rule:nonzero;"/>
                    <rect x="2123.09" y="1623.44" width="18.34" height="18.34" style="fill:rgb(62,137,72);fill-rule:nonzero;"/>
                    <rect x="2031.39" y="1605.1" width="18.34" height="18.34" style="fill:rgb(6,59,108);fill-rule:nonzero;"/>
                    <path d="M2049.73,1605.1L2068.07,1605.1L2068.07,1531.74L2086.41,1531.74L2086.41,1605.1L2104.75,1605.1L2104.75,1623.43L2123.09,1623.43L2123.09,1641.77L2031.39,1641.77L2031.39,1623.43L2049.73,1623.43L2049.73,1605.1Z" style="fill:rgb(6,72,137);fill-rule:nonzero;"/>
                    <rect x="2104.75" y="1605.1" width="18.34" height="18.34" style="fill:rgb(62,137,72);fill-rule:nonzero;"/>
                    <rect x="2104.75" y="1513.4" width="18.34" height="91.69" style="fill:rgb(38,92,66);fill-rule:nonzero;"/>
                    <rect x="1958.04" y="1531.74" width="18.34" height="18.34" style="fill:rgb(218,127,53);fill-rule:nonzero;"/>
                    <path d="M2104.75,1605.1L2086.41,1605.1L2086.41,1531.74L2068.07,1531.74L2068.07,1605.1L2049.73,1605.1L2049.73,1513.4L2104.75,1513.4L2104.75,1605.1Z" style="fill:rgb(62,137,72);fill-rule:nonzero;"/>
                    <rect x="2031.39" y="1513.4" width="18.34" height="91.69" style="fill:rgb(35,41,68);fill-rule:nonzero;"/>
                    <rect x="1903.02" y="1311.67" width="18.34" height="18.34" style="fill:rgb(84,43,38);fill-rule:nonzero;"/>
                    <rect x="1903.02" y="1275" width="18.34" height="18.34" style="fill:rgb(207,163,129);fill-rule:nonzero;"/>
                    <rect x="1903.02" y="1330.01" width="18.34" height="18.34" style="fill:rgb(84,43,38);fill-rule:nonzero;"/>
                    <path d="M1903.02,1293.33L1903.02,1330.01L1921.36,1330.01L1921.36,1403.37L1939.7,1403.37L1939.7,1293.33L1903.02,1293.33Z" style="fill:rgb(181,126,105);fill-rule:nonzero;"/>
                    <path d="M1994.72,1238.32L1994.72,1256.66L1976.38,1256.66L1976.38,1385.03L1994.72,1385.03L1994.72,1403.37L2049.73,1403.37L2049.73,1421.71L2031.39,1421.71L2031.39,1440.05L2068.07,1440.05L2068.07,1421.71L2086.41,1421.71L2086.41,1403.37L2123.09,1403.37L2123.09,1385.03L2141.43,1385.03L2141.43,1238.32L1994.72,1238.32Z" style="fill:rgb(207,163,129);fill-rule:nonzero;"/>
                    <path d="M2196.44,1366.69L2196.44,1238.32L1958.04,1238.32L1958.04,1256.66L1939.7,1256.66L1939.7,1421.7L1958.04,1421.7L1958.04,1440.05L1994.71,1440.05L1994.71,1476.72L2178.1,1476.72L2178.1,1458.38L2196.44,1458.38L2196.44,1421.7L2214.78,1421.7L2214.78,1366.69L2196.44,1366.69Z" style="fill:rgb(207,163,129);fill-rule:nonzero;"/>
                    <path d="M2141.42,1219.98L1976.38,1219.98L1976.38,1201.64L1958.04,1201.64L1958.04,1183.3L1884.68,1183.3L1884.68,1201.64L1903.02,1201.64L1903.02,1274.99L1921.36,1274.99L1921.36,1293.33L1939.7,1293.33L1939.7,1274.99L1958.04,1274.99L1958.04,1293.33L1976.38,1293.33L1976.38,1256.66L1994.72,1256.66L1994.72,1238.32L2141.42,1238.32L2141.42,1219.98Z" style="fill:rgb(84,43,38);fill-rule:nonzero;"/>
                    <path d="M2214.78,1128.28L2214.78,1146.62L1958.04,1146.62L1958.04,1164.96L1939.7,1164.96L1939.7,1183.3L1921.36,1183.3L1921.36,1201.64L1939.7,1201.64L1939.7,1219.98L2214.78,1219.98L2214.78,1201.64L2233.12,1201.64L2233.12,1128.28L2214.78,1128.28Z" style="fill:rgb(107,58,36);fill-rule:nonzero;"/>
                    <path d="M2049.73,1238.32L2049.73,1256.66L2031.39,1256.66L2031.39,1275L2013.06,1275L2013.06,1293.33L1994.72,1293.33L1994.72,1421.71L2013.06,1421.71L2013.06,1440.05L2068.07,1440.05L2068.07,1458.38L2049.73,1458.38L2049.73,1476.72L2123.09,1476.72L2123.09,1458.38L2141.42,1458.38L2141.42,1440.05L2178.1,1440.05L2178.1,1421.71L2196.44,1421.71L2196.44,1238.32L2049.73,1238.32Z" style="fill:rgb(207,163,129);fill-rule:nonzero;"/>
                    <path d="M1994.71,1623.44L2013.05,1623.44L2013.05,1641.78L1994.71,1641.78L1994.71,1623.44ZM2013.05,1605.1L2031.39,1605.1L2031.39,1623.44L2013.05,1623.44L2013.05,1605.1ZM2086.41,1605.1L2068.07,1605.1L2068.07,1531.74L2049.73,1531.74L2049.73,1605.1L2031.39,1605.1L2031.39,1513.4L2086.41,1513.4L2086.41,1605.1Z" style="fill:rgb(62,137,72);fill-rule:nonzero;"/>
                    <rect x="2013.05" y="1513.4" width="18.34" height="91.69" style="fill:rgb(38,92,66);fill-rule:nonzero;"/>
                    <path d="M2104.75,1623.44L2104.75,1605.1L2086.41,1605.1L2086.41,1531.74L2049.73,1531.74L2049.73,1605.1L2031.39,1605.1L2031.39,1623.44L2013.06,1623.44L2013.06,1641.77L2123.09,1641.77L2123.09,1623.44L2104.75,1623.44Z" style="fill:rgb(99,199,77);fill-rule:nonzero;"/>
                    <path d="M2013.05,1495.06L1976.38,1495.06L1976.38,1513.4L1939.7,1513.4L1939.7,1495.06L1921.36,1495.06L1921.36,1531.74L1958.04,1531.74L1958.04,1568.42L1939.7,1568.42L1939.7,1605.1L2013.05,1605.1L2013.05,1495.06Z" style="fill:rgb(207,163,129);fill-rule:nonzero;"/>
                    <rect x="1958.04" y="1531.74" width="18.34" height="18.34" style="fill:rgb(181,126,105);fill-rule:nonzero;"/>
                    <path d="M2123.09,1495.06L2159.76,1495.06L2159.76,1513.4L2196.44,1513.4L2196.44,1495.06L2214.78,1495.06L2214.78,1531.74L2178.1,1531.74L2178.1,1568.42L2196.44,1568.42L2196.44,1605.1L2123.09,1605.1L2123.09,1495.06Z" style="fill:rgb(207,163,129);fill-rule:nonzero;"/>
                    <rect x="2159.77" y="1531.74" width="18.34" height="18.34" style="fill:rgb(181,126,105);fill-rule:nonzero;"/>
                    <path d="M2141.54,1641.77L2159.88,1641.77L2159.88,1660.11L2141.54,1660.11L2141.54,1641.77ZM1976.42,1641.77L1994.76,1641.77L1994.76,1660.11L1976.42,1660.11L1976.42,1641.77Z" style="fill:rgb(62,137,72);fill-rule:nonzero;"/>
                    <path d="M2104.75,1641.77L2104.75,1623.44L2086.41,1623.44L2086.41,1550.08L2049.73,1550.08L2049.73,1623.44L2031.39,1623.44L2031.39,1641.77L2013.06,1641.77L2013.06,1660.11L2123.09,1660.11L2123.09,1641.77L2104.75,1641.77Z" style="fill:rgb(99,199,77);fill-rule:nonzero;"/>
                    <rect x="2013.05" y="1330.01" width="165.05" height="91.69" style="fill:rgb(35,30,43);fill-rule:nonzero;"/>
                    <rect x="2068.07" y="1403.37" width="55.02" height="18.34" style="fill:rgb(137,39,39);fill-rule:nonzero;"/>
                    <rect x="2013.05" y="1330.01" width="165.05" height="18.34" style="fill:white;fill-rule:nonzero;"/>
                    <g transform="matrix(1,0,0,1,0,-3.83)">
                        <path d="M2196.44,1242.14L2141.44,1242.14L2141.44,1297.14L2196.44,1297.14L2196.44,1242.14ZM2178.1,1278.82L2159.77,1278.82L2159.77,1260.49L2178.1,1260.49L2178.1,1278.82ZM2013.05,1297.16L2068.05,1297.16L2068.05,1242.16L2013.05,1242.16L2013.05,1297.16ZM2031.39,1260.48L2049.73,1260.48L2049.73,1278.82L2031.39,1278.82L2031.39,1260.48Z" style="fill:white;fill-rule:nonzero;"/>
                    </g>
                    <path d="M2031.39,1256.66L2049.73,1256.66L2049.73,1275L2031.39,1275L2031.39,1256.66ZM2159.77,1256.66L2178.11,1256.66L2178.11,1275L2159.77,1275L2159.77,1256.66Z" style="fill:rgb(35,30,43);fill-rule:nonzero;"/>
                    <path d="M1994.74,1605.1L2013.08,1605.1L2013.08,1623.44L1994.74,1623.44L1994.74,1605.1ZM1976.44,1623.44L1994.78,1623.44L1994.78,1641.78L1976.44,1641.78L1976.44,1623.44ZM2123.14,1605.1L2141.48,1605.1L2141.48,1623.44L2123.14,1623.44L2123.14,1605.1ZM2141.59,1623.44L2159.93,1623.44L2159.93,1641.78L2141.59,1641.78L2141.59,1623.44Z" style="fill:rgb(38,92,66);fill-rule:nonzero;"/>
                </g>
                <g id="guy-3">
                    <path d="M2214.85,1128.28L2214.85,1146.62L1958.11,1146.62L1958.11,1164.96L1939.77,1164.96L1939.77,1183.3L1921.43,1183.3L1921.43,1164.96L1903.09,1164.96L1903.09,1183.3L1884.76,1183.3L1884.76,1201.64L1903.09,1201.64L1903.09,1366.69L1921.43,1366.69L1921.43,1421.71L1939.77,1421.71L1939.77,1440.05L1958.11,1440.05L1958.11,1458.39L1976.45,1458.39L1976.45,1476.72L2178.18,1476.72L2178.18,1458.39L2196.52,1458.39L2196.52,1421.71L2214.85,1421.71L2214.85,1366.69L2196.52,1366.69L2196.52,1293.39L2196.54,1293.39L2196.54,1238.39L2196.52,1238.39L2196.52,1238.32L2214.85,1238.32L2214.85,1201.64L2233.19,1201.64L2233.19,1128.28L2214.85,1128.28Z" style="fill:rgb(207,163,129);fill-rule:nonzero;"/>
                    <g transform="matrix(1,0,0,1,0,-3.83)">
                        <path d="M2233.18,1774L2233.18,1755.65L2214.84,1755.65L2214.84,1737.31L2196.49,1737.31L2196.49,1700.61L2178.14,1700.61L2178.14,1682.27L2159.8,1682.27L2159.8,1627.26L2141.4,1627.26L2141.4,1608.93L2196.31,1608.93L2196.31,1572.25L2178,1572.25L2178,1535.58L2214.68,1535.58L2214.68,1498.9L2196.34,1498.9L2196.34,1517.24L2159.66,1517.24L2159.66,1498.9L2123,1498.9L2123,1517.24L2013,1517.24L2013,1498.9L1976.32,1498.9L1976.32,1517.24L1939.65,1517.24L1939.65,1498.9L1921.31,1498.9L1921.31,1535.58L1958,1535.58L1958,1572.25L1939.67,1572.25L1939.67,1608.93L1994.67,1608.93L1994.67,1627.27L1976.34,1627.27L1976.34,1682.3L1958,1682.3L1958,1700.64L1939.66,1700.64L1939.66,1719L1921.31,1719L1921.31,1755.69L1902.96,1755.69L1902.96,1774L1884.6,1774L1884.6,1792.35L2269.88,1792.35L2269.88,1774L2233.18,1774ZM2013,1737.33L2031.35,1737.33L2031.35,1719L2123.08,1719L2123.08,1737.35L2141.43,1737.35L2141.43,1774L2013,1774L2013,1737.33Z" style="fill:rgb(50,55,103);fill-rule:nonzero;"/>
                    </g>
                    <path d="M2288.22,1770.19L2324.91,1770.19L2324.91,1788.54L2288.22,1788.54L2288.22,1770.19ZM1847.9,1770.2L1866.25,1770.2L1866.25,1788.55L1847.9,1788.55L1847.9,1770.2Z" style="fill:rgb(50,55,103);fill-rule:nonzero;"/>
                    <g opacity="0.59">
                        <rect x="1884.68" y="1770.19" width="385.28" height="18.35" style="fill:rgb(165,132,109);fill-rule:nonzero;"/>
                    </g>
                    <rect x="2233.27" y="1770.19" width="18.35" height="18.35" style="fill:rgb(106,74,47);fill-rule:nonzero;"/>
                    <path d="M2141.53,1770.19L2233.26,1770.19L2233.26,1788.54L2141.53,1788.54L2141.53,1770.19ZM1994.76,1770.19L1994.76,1751.85L1976.41,1751.85L1976.41,1770.19L1939.72,1770.19L1939.72,1788.54L2013.11,1788.54L2013.11,1770.19L1994.76,1770.19Z" style="fill:rgb(61,37,31);fill-rule:nonzero;"/>
                    <path d="M1921.37,1770.19L1939.72,1770.19L1939.72,1788.54L1921.37,1788.54L1921.37,1770.19ZM2196.57,1751.85L2233.26,1751.85L2233.26,1770.2L2196.57,1770.2L2196.57,1751.85ZM1939.72,1751.85L1976.41,1751.85L1976.41,1770.2L1939.72,1770.2L1939.72,1751.85Z" style="fill:rgb(106,74,47);fill-rule:nonzero;"/>
                    <rect x="2196.57" y="1733.5" width="18.35" height="18.35" style="fill:rgb(61,131,166);fill-rule:nonzero;"/>
                    <rect x="1958.07" y="1715.15" width="36.69" height="18.35" style="fill:rgb(42,81,126);fill-rule:nonzero;"/>
                    <rect x="2178.23" y="1696.81" width="18.35" height="18.35" style="fill:rgb(61,131,166);fill-rule:nonzero;"/>
                    <rect x="1976.41" y="1696.81" width="18.35" height="18.35" style="fill:rgb(50,55,103);fill-rule:nonzero;"/>
                    <rect x="2159.88" y="1678.46" width="18.35" height="18.35" style="fill:rgb(61,131,166);fill-rule:nonzero;"/>
                    <path d="M2123.19,1678.46L2123.19,1696.81L2141.53,1696.81L2141.53,1715.15L2159.88,1715.15L2159.88,1751.85L2196.57,1751.85L2196.57,1715.15L2178.23,1715.15L2178.23,1696.81L2159.88,1696.81L2159.88,1678.46L2123.19,1678.46Z" style="fill:rgb(42,81,126);fill-rule:nonzero;"/>
                    <rect x="2141.53" y="1660.11" width="18.35" height="18.35" style="fill:rgb(61,131,166);fill-rule:nonzero;"/>
                    <g>
                        <g opacity="0.59">
                            <rect x="2288.31" y="1770.19" width="36.69" height="18.35" style="fill:rgb(165,132,109);fill-rule:nonzero;"/>
                        </g>
                        <g opacity="0.59">
                            <rect x="1847.99" y="1770.19" width="18.35" height="18.35" style="fill:rgb(165,132,109);fill-rule:nonzero;"/>
                        </g>
                    </g>
                    <path d="M1976.41,1770.19L1976.41,1751.85L1958.07,1751.85L1958.07,1770.19L1921.37,1770.19L1921.37,1788.54L1994.76,1788.54L1994.76,1770.19L1976.41,1770.19Z" style="fill:rgb(61,37,31);fill-rule:nonzero;"/>
                    <rect x="1903.03" y="1770.19" width="18.35" height="18.35" style="fill:rgb(106,74,47);fill-rule:nonzero;"/>
                    <rect x="1921.37" y="1751.85" width="36.69" height="18.35" style="fill:rgb(106,74,47);fill-rule:nonzero;"/>
                    <rect x="1939.72" y="1715.15" width="36.69" height="18.35" style="fill:rgb(42,81,126);fill-rule:nonzero;"/>
                    <path d="M1958.07,1696.81L1976.42,1696.81L1976.42,1715.16L1958.07,1715.16L1958.07,1696.81ZM1994.76,1678.46L2013.11,1678.46L2013.11,1696.81L1994.76,1696.81L1994.76,1678.46Z" style="fill:rgb(50,55,103);fill-rule:nonzero;"/>
                    <rect x="2123.19" y="1623.42" width="18.35" height="18.35" style="fill:rgb(62,137,72);fill-rule:nonzero;"/>
                    <path d="M1958.07,1770.19L1958.07,1751.85L1939.72,1751.85L1939.72,1770.19L1903.03,1770.19L1903.03,1788.54L1976.41,1788.54L1976.41,1770.19L1958.07,1770.19Z" style="fill:rgb(61,37,31);fill-rule:nonzero;"/>
                    <path d="M1884.68,1770.19L1903.03,1770.19L1903.03,1788.54L1884.68,1788.54L1884.68,1770.19ZM1903.03,1751.85L1939.72,1751.85L1939.72,1770.2L1903.03,1770.2L1903.03,1751.85Z" style="fill:rgb(106,74,47);fill-rule:nonzero;"/>
                    <rect x="1921.37" y="1715.15" width="36.69" height="18.35" style="fill:rgb(42,81,126);fill-rule:nonzero;"/>
                    <path d="M1939.72,1696.81L1958.07,1696.81L1958.07,1715.16L1939.72,1715.16L1939.72,1696.81ZM1976.41,1678.46L1994.76,1678.46L1994.76,1696.81L1976.41,1696.81L1976.41,1678.46Z" style="fill:rgb(50,55,103);fill-rule:nonzero;"/>
                    <path d="M1921.38,1733.5L1939.73,1733.5L1939.73,1751.85L1921.38,1751.85L1921.38,1733.5ZM1939.72,1696.81L1958.07,1696.81L1958.07,1715.16L1939.72,1715.16L1939.72,1696.81ZM1958.07,1678.46L1976.42,1678.46L1976.42,1696.81L1958.07,1696.81L1958.07,1678.46Z" style="fill:rgb(61,131,166);fill-rule:nonzero;"/>
                    <path d="M1976.41,1678.46L1976.41,1696.81L1958.07,1696.81L1958.07,1715.15L1939.72,1715.15L1939.72,1751.85L1976.41,1751.85L1976.41,1715.15L1994.76,1715.15L1994.76,1696.81L2013.11,1696.81L2013.11,1678.46L1976.41,1678.46Z" style="fill:rgb(42,81,126);fill-rule:nonzero;"/>
                    <rect x="1976.41" y="1660.11" width="18.35" height="18.35" style="fill:rgb(61,131,166);fill-rule:nonzero;"/>
                    <path d="M2159.88,1751.85L2159.88,1715.15L2141.53,1715.15L2141.53,1696.81L2123.18,1696.81L2123.18,1678.46L2141.53,1678.46L2141.53,1660.11L1994.76,1660.11L1994.76,1678.46L2013.11,1678.46L2013.11,1696.81L1994.76,1696.81L1994.76,1715.15L1958.07,1715.15L1958.07,1733.5L1921.37,1733.5L1921.37,1751.85L1958.07,1751.85L1958.07,1770.19L2013.11,1770.19L2013.11,1733.5L2031.45,1733.5L2031.45,1715.15L2123.18,1715.15L2123.18,1733.5L2141.53,1733.5L2141.53,1770.19L2196.57,1770.19L2196.57,1751.85L2159.88,1751.85Z" style="fill:rgb(50,55,103);fill-rule:nonzero;"/>
                    <path d="M1976.38,1476.72L1994.71,1476.72L1994.71,1458.39L2013.05,1458.39L2013.05,1440.05L1958.04,1440.05L1958.04,1458.39L1976.38,1458.39L1976.38,1476.72ZM1939.7,1421.71L1958.04,1421.71L1958.04,1440.05L1939.7,1440.05L1939.7,1421.71ZM1939.7,1330.01L1903.02,1330.01L1903.02,1348.35L1921.36,1348.35L1921.36,1421.7L1939.7,1421.7L1939.7,1330.01Z" style="fill:rgb(181,126,105);fill-rule:nonzero;"/>
                    <rect x="1903.02" y="1348.35" width="18.34" height="18.34" style="fill:rgb(84,43,38);fill-rule:nonzero;"/>
                    <rect x="1994.71" y="1311.67" width="18.34" height="36.68" style="fill:rgb(35,30,43);fill-rule:nonzero;"/>
                    <rect x="1903.02" y="1311.67" width="18.34" height="18.34" style="fill:rgb(207,163,129);fill-rule:nonzero;"/>
                    <rect x="2104.75" y="1238.32" width="18.34" height="18.34" style="fill:rgb(84,43,38);fill-rule:nonzero;"/>
                    <rect x="1903.02" y="1164.96" width="18.34" height="18.34" style="fill:rgb(107,58,36);fill-rule:nonzero;"/>
                    <path d="M2049.73,1219.98L2049.73,1201.64L2031.39,1201.64L2031.39,1183.3L1994.72,1183.3L1994.72,1201.64L2013.06,1201.64L2013.06,1274.99L2031.39,1274.99L2031.39,1293.33L2049.73,1293.33L2049.73,1256.66L2068.07,1256.66L2068.07,1238.32L2214.78,1238.32L2214.78,1219.98L2049.73,1219.98Z" style="fill:rgb(84,43,38);fill-rule:nonzero;"/>
                    <rect x="2013.05" y="1623.44" width="18.34" height="18.34" style="fill:rgb(6,59,108);fill-rule:nonzero;"/>
                    <path d="M2141.53,1623.42L2141.53,1605.08L2123.19,1605.08L2123.19,1586.73L2013.11,1586.73L2013.11,1605.08L1994.76,1605.1L1994.76,1623.44L1976.42,1623.44L1976.41,1660.11L2159.88,1660.11L2159.88,1623.42L2141.53,1623.42Z" style="fill:rgb(99,199,77);fill-rule:nonzero;"/>
                    <rect x="2123.09" y="1623.44" width="18.34" height="18.34" style="fill:rgb(62,137,72);fill-rule:nonzero;"/>
                    <rect x="2031.39" y="1605.1" width="18.34" height="18.34" style="fill:rgb(6,59,108);fill-rule:nonzero;"/>
                    <path d="M2049.73,1605.1L2068.07,1605.1L2068.07,1531.74L2086.41,1531.74L2086.41,1605.1L2104.75,1605.1L2104.75,1623.43L2123.09,1623.43L2123.09,1641.77L2031.39,1641.77L2031.39,1623.43L2049.73,1623.43L2049.73,1605.1Z" style="fill:rgb(6,72,137);fill-rule:nonzero;"/>
                    <rect x="2104.75" y="1605.1" width="18.34" height="18.34" style="fill:rgb(62,137,72);fill-rule:nonzero;"/>
                    <rect x="2104.75" y="1513.4" width="18.34" height="91.69" style="fill:rgb(38,92,66);fill-rule:nonzero;"/>
                    <rect x="1958.04" y="1531.74" width="18.34" height="18.34" style="fill:rgb(218,127,53);fill-rule:nonzero;"/>
                    <path d="M2104.75,1605.1L2086.41,1605.1L2086.41,1531.74L2068.07,1531.74L2068.07,1605.1L2049.73,1605.1L2049.73,1513.4L2104.75,1513.4L2104.75,1605.1Z" style="fill:rgb(62,137,72);fill-rule:nonzero;"/>
                    <rect x="2031.39" y="1513.4" width="18.34" height="91.69" style="fill:rgb(35,41,68);fill-rule:nonzero;"/>
                    <rect x="1903.02" y="1311.67" width="18.34" height="18.34" style="fill:rgb(84,43,38);fill-rule:nonzero;"/>
                    <rect x="1903.02" y="1275" width="18.34" height="18.34" style="fill:rgb(207,163,129);fill-rule:nonzero;"/>
                    <rect x="1903.02" y="1330.01" width="18.34" height="18.34" style="fill:rgb(84,43,38);fill-rule:nonzero;"/>
                    <path d="M1903.02,1293.33L1903.02,1330.01L1921.36,1330.01L1921.36,1403.37L1939.7,1403.37L1939.7,1293.33L1903.02,1293.33Z" style="fill:rgb(181,126,105);fill-rule:nonzero;"/>
                    <path d="M1994.72,1238.32L1994.72,1256.66L1976.38,1256.66L1976.38,1385.03L1994.72,1385.03L1994.72,1403.37L2049.73,1403.37L2049.73,1421.71L2031.39,1421.71L2031.39,1440.05L2068.07,1440.05L2068.07,1421.71L2086.41,1421.71L2086.41,1403.37L2123.09,1403.37L2123.09,1385.03L2141.43,1385.03L2141.43,1238.32L1994.72,1238.32Z" style="fill:rgb(207,163,129);fill-rule:nonzero;"/>
                    <path d="M2196.44,1366.69L2196.44,1238.32L1958.04,1238.32L1958.04,1256.66L1939.7,1256.66L1939.7,1421.7L1958.04,1421.7L1958.04,1440.05L1994.71,1440.05L1994.71,1476.72L2178.1,1476.72L2178.1,1458.38L2196.44,1458.38L2196.44,1421.7L2214.78,1421.7L2214.78,1366.69L2196.44,1366.69Z" style="fill:rgb(207,163,129);fill-rule:nonzero;"/>
                    <path d="M2141.42,1219.98L1976.38,1219.98L1976.38,1201.64L1958.04,1201.64L1958.04,1183.3L1884.68,1183.3L1884.68,1201.64L1903.02,1201.64L1903.02,1274.99L1921.36,1274.99L1921.36,1293.33L1939.7,1293.33L1939.7,1274.99L1958.04,1274.99L1958.04,1293.33L1976.38,1293.33L1976.38,1256.66L1994.72,1256.66L1994.72,1238.32L2141.42,1238.32L2141.42,1219.98Z" style="fill:rgb(84,43,38);fill-rule:nonzero;"/>
                    <path d="M2214.78,1128.28L2214.78,1146.62L1958.04,1146.62L1958.04,1164.96L1939.7,1164.96L1939.7,1183.3L1921.36,1183.3L1921.36,1201.64L1939.7,1201.64L1939.7,1219.98L2214.78,1219.98L2214.78,1201.64L2233.12,1201.64L2233.12,1128.28L2214.78,1128.28Z" style="fill:rgb(107,58,36);fill-rule:nonzero;"/>
                    <path d="M2049.73,1238.32L2049.73,1256.66L2031.39,1256.66L2031.39,1275L2013.06,1275L2013.06,1293.33L1994.72,1293.33L1994.72,1421.71L2013.06,1421.71L2013.06,1440.05L2068.07,1440.05L2068.07,1458.38L2049.73,1458.38L2049.73,1476.72L2123.09,1476.72L2123.09,1458.38L2141.42,1458.38L2141.42,1440.05L2178.1,1440.05L2178.1,1421.71L2196.44,1421.71L2196.44,1238.32L2049.73,1238.32Z" style="fill:rgb(207,163,129);fill-rule:nonzero;"/>
                    <path d="M1994.71,1623.44L2013.05,1623.44L2013.05,1641.78L1994.71,1641.78L1994.71,1623.44ZM2013.05,1605.1L2031.39,1605.1L2031.39,1623.44L2013.05,1623.44L2013.05,1605.1ZM2086.41,1605.1L2068.07,1605.1L2068.07,1531.74L2049.73,1531.74L2049.73,1605.1L2031.39,1605.1L2031.39,1513.4L2086.41,1513.4L2086.41,1605.1Z" style="fill:rgb(62,137,72);fill-rule:nonzero;"/>
                    <rect x="2013.05" y="1513.4" width="18.34" height="91.69" style="fill:rgb(38,92,66);fill-rule:nonzero;"/>
                    <path d="M2104.75,1623.44L2104.75,1605.1L2086.41,1605.1L2086.41,1531.74L2049.73,1531.74L2049.73,1605.1L2031.39,1605.1L2031.39,1623.44L2013.06,1623.44L2013.06,1641.77L2123.09,1641.77L2123.09,1623.44L2104.75,1623.44Z" style="fill:rgb(99,199,77);fill-rule:nonzero;"/>
                    <path d="M2013.05,1495.06L1976.38,1495.06L1976.38,1513.4L1939.7,1513.4L1939.7,1495.06L1921.36,1495.06L1921.36,1531.74L1958.04,1531.74L1958.04,1568.42L1939.7,1568.42L1939.7,1605.1L2013.05,1605.1L2013.05,1495.06Z" style="fill:rgb(207,163,129);fill-rule:nonzero;"/>
                    <rect x="1958.04" y="1531.74" width="18.34" height="18.34" style="fill:rgb(181,126,105);fill-rule:nonzero;"/>
                    <path d="M2123.09,1495.06L2159.76,1495.06L2159.76,1513.4L2196.44,1513.4L2196.44,1495.06L2214.78,1495.06L2214.78,1531.74L2178.1,1531.74L2178.1,1568.42L2196.44,1568.42L2196.44,1605.1L2123.09,1605.1L2123.09,1495.06Z" style="fill:rgb(207,163,129);fill-rule:nonzero;"/>
                    <rect x="2159.77" y="1531.74" width="18.34" height="18.34" style="fill:rgb(181,126,105);fill-rule:nonzero;"/>
                    <path d="M2141.54,1641.77L2159.88,1641.77L2159.88,1660.11L2141.54,1660.11L2141.54,1641.77ZM1976.42,1641.77L1994.76,1641.77L1994.76,1660.11L1976.42,1660.11L1976.42,1641.77Z" style="fill:rgb(62,137,72);fill-rule:nonzero;"/>
                    <path d="M2104.75,1641.77L2104.75,1623.44L2086.41,1623.44L2086.41,1550.08L2049.73,1550.08L2049.73,1623.44L2031.39,1623.44L2031.39,1641.77L2013.06,1641.77L2013.06,1660.11L2123.09,1660.11L2123.09,1641.77L2104.75,1641.77Z" style="fill:rgb(99,199,77);fill-rule:nonzero;"/>
                    <rect x="2013.05" y="1330.01" width="165.05" height="91.69" style="fill:rgb(35,30,43);fill-rule:nonzero;"/>
                    <path d="M1994.74,1605.1L2013.08,1605.1L2013.08,1623.44L1994.74,1623.44L1994.74,1605.1ZM1976.44,1623.44L1994.78,1623.44L1994.78,1641.78L1976.44,1641.78L1976.44,1623.44ZM2123.14,1605.1L2141.48,1605.1L2141.48,1623.44L2123.14,1623.44L2123.14,1605.1ZM2141.59,1623.44L2159.93,1623.44L2159.93,1641.78L2141.59,1641.78L2141.59,1623.44Z" style="fill:rgb(38,92,66);fill-rule:nonzero;"/>
                    <rect x="2068.14" y="1421.72" width="55" height="18.33" style="fill:rgb(137,39,39);fill-rule:nonzero;"/>
                    <path d="M2123.14,1440.06L2123.14,1421.72L2068.14,1421.72L2068.14,1440.06L2013.14,1440.06L2013.14,1330.06L2178.14,1330.06L2178.14,1440.06L2123.14,1440.06Z" style="fill:rgb(35,30,43);fill-rule:nonzero;"/>
                    <rect x="2013.14" y="1311.73" width="165" height="18.33" style="fill:white;fill-rule:nonzero;"/>
                    <g transform="matrix(1,0,0,1,0,-3.83)">
                        <path d="M2196.47,1242.22L2141.47,1242.22L2141.47,1297.22L2196.47,1297.22L2196.47,1242.22ZM2178.14,1278.89L2159.8,1278.89L2159.8,1260.55L2178.14,1260.55L2178.14,1278.89ZM2013.14,1297.22L2068.14,1297.22L2068.14,1242.22L2013.14,1242.22L2013.14,1297.22ZM2031.48,1260.56L2049.81,1260.56L2049.81,1278.89L2031.48,1278.89L2031.48,1260.56Z" style="fill:white;fill-rule:nonzero;"/>
                    </g>
                    <path d="M2031.48,1256.73L2049.81,1256.73L2049.81,1275.06L2031.48,1275.06L2031.48,1256.73ZM2159.8,1256.73L2178.13,1256.73L2178.13,1275.06L2159.8,1275.06L2159.8,1256.73Z" style="fill:rgb(35,30,43);fill-rule:nonzero;"/>
                </g>
            </g>
        </g>
    </g>
</svg>
