<?xml version="1.0" encoding="UTF-8" standalone="no"?>
<!DOCTYPE svg PUBLIC "-//W3C//DTD SVG 1.1//EN" "http://www.w3.org/Graphics/SVG/1.1/DTD/svg11.dtd">
<svg width="100%" height="100%" viewBox="0 0 1082 1080" version="1.1" xmlns="http://www.w3.org/2000/svg" xmlns:xlink="http://www.w3.org/1999/xlink" xml:space="preserve" xmlns:serif="http://www.serif.com/" style="fill-rule:evenodd;clip-rule:evenodd;stroke-miterlimit:10;">
    <style><![CDATA[
        /* Group-level float using pixel translations (no child transforms) */
        #abbreviationTextStroke,
        #abbreviationShapes,
        #abbreviationText {
            transform-box: fill-box;
            transform-origin: center;
            will-change: transform;
            animation: floatA 9000ms ease-in-out infinite;
        }
        #abbreviationShapes { animation: floatB 10500ms ease-in-out infinite 200ms; }
        #abbreviationText   { animation: floatC 8500ms  ease-in-out infinite 300ms; }

        @keyframes floatA {
            0%, 100% { transform: translate(0px, 0px); }
            25%      { transform: translate(20px, -20px); }
            50%      { transform: translate(0px, -30px); }
            75%      { transform: translate(-20px, -20px); }
        }
        @keyframes floatB {
            0%, 100% { transform: translate(0px, 0px); }
            25%      { transform: translate(30px, 0px); }
            50%      { transform: translate(0px, 30px); }
            75%      { transform: translate(-30px, 0px); }
        }
        @keyframes floatC {
            0%, 100% { transform: translate(0px, 0px); }
            20%      { transform: translate(20px, -20px); }
            50%      { transform: translate(0px, 20px); }
            80%      { transform: translate(-20px, -20px); }
        }

        @media (prefers-reduced-motion: reduce) {
            #abbreviationTextStroke,
            #abbreviationShapes,
            #abbreviationText { animation: none !important; }
        }
    ]]></style>
    <g id="Layer_2">
        <g id="abbreviationGroupTexts">
            <rect x="-1.59" y="0" width="1081.59" height="1080" style="fill:rgb(39,39,39);"/>
            <g id="abbreviationText">
                <path d="M106.298,817.785L174.178,817.785L174.178,607.122C189.783,611.023 208.508,611.803 228.794,611.803C295.114,611.803 353.631,592.297 389.522,554.066C416.05,526.758 430.094,489.307 430.094,441.712C430.094,394.898 412.929,356.667 384.061,331.7C352.851,303.611 303.697,288.007 236.597,288.007C181.98,288.007 139.067,292.688 106.298,298.15L106.298,817.785ZM174.178,347.304C185.881,344.183 208.508,341.843 238.157,341.843C313.059,341.843 362.214,375.393 362.214,444.833C362.214,517.395 312.279,557.187 230.355,557.187C207.728,557.187 189.002,555.626 174.178,551.725L174.178,347.304Z" style="fill:rgb(247,181,23);fill-rule:nonzero;"/>
                <rect x="521.382" y="291.908" width="67.88" height="525.877" style="fill:rgb(247,181,23);fill-rule:nonzero;"/>
                <path d="M807.727,817.785L876.387,817.785L876.387,349.645L1037.12,349.645L1037.12,291.908L647.779,291.908L647.779,349.645L807.727,349.645L807.727,817.785Z" style="fill:rgb(247,181,23);fill-rule:nonzero;"/>
            </g>
            <g id="abbreviationShapes">
                <rect x="66.54" y="909.2" width="84.05" height="84.05" style="fill:rgb(247,181,23);"/>
                <rect x="514.79" y="909.2" width="84.05" height="84.05" style="fill:rgb(247,181,23);"/>
                <rect x="820.15" y="909.2" width="84.05" height="84.05" style="fill:rgb(247,181,23);"/>
            </g>
            <g id="abbreviationTextStroke">
                <path d="M120.822,857.59L188.421,857.59L188.421,647.8C203.961,651.685 222.609,652.462 242.811,652.462C308.856,652.462 367.131,633.037 402.873,594.964C429.291,567.769 443.277,530.473 443.277,483.076C443.277,436.456 426.183,398.383 397.434,373.519C366.354,345.547 317.403,330.007 250.581,330.007C196.191,330.007 153.456,334.669 120.822,340.108L120.822,857.59ZM188.421,389.059C200.076,385.951 222.609,383.62 252.135,383.62C326.727,383.62 375.678,417.031 375.678,486.184C375.678,558.445 325.95,598.072 244.365,598.072C221.832,598.072 203.184,596.518 188.421,592.633L188.421,389.059Z" style="fill:none;fill-rule:nonzero;stroke:white;stroke-width:4px;"/>
                <rect x="501.552" y="143.972" width="67.599" height="523.698" style="fill:none;fill-rule:nonzero;stroke:white;stroke-width:4px;"/>
                <path d="M782.048,670.5L850.424,670.5L850.424,204.3L1010.49,204.3L1010.49,146.802L622.763,146.802L622.763,204.3L782.048,204.3L782.048,670.5Z" style="fill:none;fill-rule:nonzero;stroke:white;stroke-width:4px;"/>
            </g>
        </g>
    </g>
</svg>
