<svg width="188" height="19" viewBox="0 0 188 19" fill="none" xmlns="http://www.w3.org/2000/svg" class="logo a-logo" data-v-2866d63e=""><style><![CDATA[
.logo.a-logo path { animation: letter-stagger 2.8s ease-in-out infinite; }
.logo.a-logo path:nth-of-type(1) { animation-delay: 0s; }
.logo.a-logo path:nth-of-type(2) { animation-delay: 0.12s; }
.logo.a-logo path:nth-of-type(3) { animation-delay: 0.24s; }
.logo.a-logo path:nth-of-type(4) { animation-delay: 0.36s; }
.logo.a-logo path:nth-of-type(5) { animation-delay: 0.48s; }
.logo.a-logo path:nth-of-type(6) { animation-delay: 0.60s; }
.logo.a-logo path:nth-of-type(7) { animation-delay: 0.72s; }
.logo.a-logo path:nth-of-type(8) { animation-delay: 0.84s; }
.logo.a-logo path:nth-of-type(9) { animation-delay: 0.96s; }
.logo.a-logo path:nth-of-type(10) { animation-delay: 1.08s; }

@keyframes letter-stagger {
  0%, 100% { fill: #222222; }
  50% { fill: #fc6b02; }
}

@media (prefers-reduced-motion: reduce) {
  .logo.a-logo path { animation: none !important; }
}
]]></style><path d="M10.8964 18.0698L7.05965 12.404H3.99023V18.0698H0V0.306641H8.13394C12.2777 0.306641 14.8867 2.45047 14.8867 6.12561C14.8867 9.03509 13.352 10.8727 11.0499 11.6383L15.3471 18.0698H10.8964ZM11.0499 6.27874C11.0499 4.59431 9.82213 3.67552 7.98048 3.67552H4.14371V8.72883H8.13394C9.82212 8.88196 11.0499 7.96318 11.0499 6.27874Z" fill="#222222" data-v-2866d63e=""></path><path d="M21.4883 18.0701V0.306885H25.4785V18.2232H21.4883V18.0701Z" fill="#222222" data-v-2866d63e=""></path><path d="M41.4395 18.2232H37.9097L30.6965 0.306885H34.9937L39.5978 12.8636L44.202 0.306885H48.4992L41.4395 18.2232Z" fill="#222222" data-v-2866d63e=""></path><path d="M54.0225 18.0701V0.306885H67.5279V3.82889H58.0127V7.50403H66.4536V11.026H58.0127V14.7012H67.6814V18.2232H54.0225V18.0701Z" fill="#222222" data-v-2866d63e=""></path><path d="M85.0256 18.0701L81.1888 12.4042H78.1194V18.0701H74.1292V0.306885H82.2631C86.4069 0.306885 89.0158 2.45071 89.0158 6.12585C89.0158 9.03534 87.4811 10.8729 85.1791 11.6386L89.4762 18.0701H85.0256ZM85.1791 6.27899C85.1791 4.59455 83.9513 3.67576 82.1097 3.67576H78.1194V8.72908H82.1097C83.9513 8.88221 85.1791 7.96343 85.1791 6.27899Z" fill="#222222" data-v-2866d63e=""></path><path d="M101.6 18.3757C98.8374 18.3757 96.2284 17.4569 94.0798 15.4662L96.3819 12.7099C97.9166 14.088 99.6048 14.8537 101.753 14.8537C103.288 14.8537 104.362 14.2412 104.362 13.1693C104.362 12.2505 103.748 11.6379 100.833 10.8723C97.3027 9.9535 94.8472 9.03472 94.8472 5.35958C94.8472 2.14383 97.4562 0 101.14 0C103.749 0 105.897 0.765654 107.739 2.29696L105.744 5.20645C104.209 4.13453 102.674 3.52201 101.14 3.52201C99.6048 3.52201 98.8374 4.28766 98.8374 5.05331C98.8374 6.27836 99.6048 6.58462 102.674 7.35028C106.358 8.26906 108.353 9.64724 108.353 12.7099C108.199 16.385 105.437 18.3757 101.6 18.3757Z" fill="#222222" data-v-2866d63e=""></path><path d="M122.314 18.3757C117.096 18.3757 113.106 14.3943 113.106 9.18785C113.106 4.13453 116.943 0 122.468 0C125.844 0 127.839 1.07191 129.527 2.75635L127.072 5.66584C125.691 4.44079 124.309 3.67514 122.468 3.67514C119.398 3.67514 117.25 6.12523 117.25 9.18785C117.25 12.2505 119.398 14.8537 122.468 14.8537C124.463 14.8537 125.691 14.088 127.225 12.7099L129.681 15.1599C127.839 17.1507 125.844 18.3757 122.314 18.3757Z" fill="#222222" data-v-2866d63e=""></path><path d="M147.331 18.0701L145.643 14.0887H138.123L136.435 18.0701H132.445L140.118 0.153809H143.801L151.475 18.0701H147.331ZM141.96 4.90086L139.658 10.7198H144.415L141.96 4.90086Z" fill="#222222" data-v-2866d63e=""></path><path d="M162.524 12.7105H159.608V18.0701H155.618V0.306885H162.985C167.282 0.306885 169.891 2.75698 169.891 6.43212C169.891 10.5666 166.668 12.7105 162.524 12.7105ZM165.9 6.43212C165.9 4.74768 164.673 3.67576 162.678 3.67576H159.608V9.18847H162.678C164.673 9.18847 165.9 8.11655 165.9 6.43212Z" fill="#222222" data-v-2866d63e=""></path><path d="M174.341 18.0701V0.306885H187.847V3.82889H178.332V7.50403H186.772V11.026H178.332V14.7012H188V18.2232H174.341V18.0701Z" fill="#222222" data-v-2866d63e=""></path></svg>