<?xml version="1.0" encoding="UTF-8" standalone="no"?>
<!DOCTYPE svg PUBLIC "-//W3C//DTD SVG 1.1//EN" "http://www.w3.org/Graphics/SVG/1.1/DTD/svg11.dtd">
<svg width="100%" height="100%" viewBox="0 0 1252 250" version="1.1" xmlns="http://www.w3.org/2000/svg" xmlns:xlink="http://www.w3.org/1999/xlink" xml:space="preserve" xmlns:serif="http://www.serif.com/" style="fill-rule:evenodd;clip-rule:evenodd;stroke-linejoin:round;stroke-miterlimit:2;">
    <style><![CDATA[
        /* CSS-only color cycling across brand palette */
        #letterRshape-2, #letterO-2, #vyne path {
            animation: color-cycle-green 6s ease-in-out infinite;
        }
        #blues > * {
            animation: color-cycle-blue 6s ease-in-out infinite;
        }
        /* Light stagger for variation */
        #blues > *:nth-child(odd) { animation-delay: 0.15s; }
        #blues > *:nth-child(3n) { animation-delay: 0.3s; }

        @keyframes color-cycle-green {
            0%   { fill: #4cb748; }
            33%  { fill: #32a2d3; }
            66%  { fill: #623392; }
            100% { fill: #4cb748; }
        }
        @keyframes color-cycle-blue {
            0%   { fill: #005597; }
            33%  { fill: #32a2d3; }
            66%  { fill: #005597; }
            100% { fill: #005597; }
        }

        /* Accessibility */
        @media (prefers-reduced-motion: reduce) {
            #letterRshape-2, #letterO-2, #vyne path, #blues > * { animation: none !important; }
        }
    ]]></style>
    <g id="working_solutions">
        <g>
            <g>
                <path id="letterRshape-2" d="M317.7,78L297.57,125.08C295.14,125.658 292.664,126.022 290.17,126.17C287.06,126.42 283.92,126.55 280.75,126.54C278.32,126.54 275.45,126.42 272.16,126.17C269.542,125.949 266.946,125.511 264.4,124.86L283.87,78L264.38,30.61C266.937,30.043 269.535,29.678 272.15,29.52C275.383,29.273 278.583,29.15 281.75,29.15C284.19,29.15 286.993,29.273 290.16,29.52C292.848,29.703 295.521,30.067 298.16,30.61L317.7,78Z" style="fill:rgb(76,183,72);fill-rule:nonzero;"/>
                <path id="letterO-2" d="M213.2,29.16C182.52,29.16 157.12,50.72 157.12,77.73C157.19,88.793 161.332,99.452 168.75,107.66L168.8,107.73L160.13,134.23L187,121.12L187.07,121.12C195.106,124.78 203.84,126.659 212.67,126.63C243.35,126.63 267.93,104.73 268.22,77.72C268.54,49.75 243.89,29.16 213.2,29.16ZM212.54,103.78C207.967,103.79 203.445,102.818 199.28,100.93L185.36,107.72L189.82,94C185.988,89.745 183.852,84.226 183.82,78.5C183.82,64.5 196.7,53.23 212.59,53.23C228.48,53.23 241.37,64.51 241.37,78.5C241.37,92.49 228.44,103.78 212.54,103.78Z" style="fill:rgb(76,183,72);fill-rule:nonzero;"/>
                <g id="blues">
                    <path d="M113.49,78.22L127.97,30.22C129.841,29.847 131.736,29.603 133.64,29.49C136.44,29.243 139.44,29.12 142.64,29.12C146.64,29.12 150.203,29.243 153.33,29.49C155.277,29.613 157.214,29.857 159.13,30.22L130.39,125.14C128.18,125.766 125.911,126.164 123.62,126.33C121.18,126.51 118.75,126.6 116.31,126.6C113.87,126.6 111.4,126.51 108.9,126.33C106.285,126.119 103.688,125.721 101.13,125.14L88,81.11C88,81.11 77.06,117.22 74.86,125.11C72.041,125.711 69.184,126.118 66.31,126.33C63.81,126.51 61.34,126.6 58.9,126.6C56.46,126.6 54.023,126.51 51.59,126.33C49.299,126.164 47.03,125.766 44.82,125.14L16.12,30.22C17.46,29.97 19.8,29.73 23.12,29.49C26.44,29.25 30.12,29.12 34.18,29.12C37.35,29.12 40.43,29.19 43.41,29.49C44.845,29.629 46.269,29.87 47.67,30.21L62.3,78.58L74.19,39.06C76.498,38.407 78.867,37.994 81.26,37.83C83.75,37.64 86.21,37.55 88.66,37.55C91.11,37.55 93.58,37.64 96.07,37.83C98.56,38.02 99.07,38.41 101.67,39.02L113.49,78.22Z" style="fill:rgb(0,85,151);fill-rule:nonzero;"/>
                    <path d="M560.62,29.16C566.019,29.078 571.415,29.452 576.75,30.28C581.948,31.12 586.904,33.071 591.28,36C595.848,39.212 599.502,43.558 601.88,48.61C604.627,54.103 606,61.357 606,70.37L606,125C603.162,125.558 600.294,125.952 597.41,126.18C594.85,126.367 592.593,126.46 590.64,126.46C588.57,126.46 586.26,126.37 583.69,126.18C580.806,125.952 577.938,125.558 575.1,125L575.1,73.7C575.1,67.24 573.883,62.61 571.45,59.81C569,57 565.29,55.6 560.29,55.6C558.852,55.618 557.417,55.752 556,56C555.021,56.091 554.062,56.338 553.16,56.73L553.16,125.11C550.322,125.668 547.454,126.062 544.57,126.29C542.01,126.477 539.753,126.57 537.8,126.57C535.73,126.57 533.41,126.48 530.86,126.29C527.973,126.062 525.102,125.668 522.26,125.11L522.26,30.91C525.3,30.46 551.48,29.16 560.62,29.16Z" style="fill:rgb(0,85,151);fill-rule:nonzero;"/>
                    <path d="M662.23,126.62C653.563,126.62 646.207,125.33 640.16,122.75C634.459,120.428 629.369,116.821 625.29,112.21C621.39,107.655 618.53,102.304 616.91,96.53C615.126,90.257 614.244,83.762 614.29,77.24C614.261,70.858 615.33,64.519 617.45,58.5C619.442,52.782 622.638,47.558 626.82,43.18C631.177,38.711 636.428,35.212 642.23,32.91C649.001,30.259 656.23,28.971 663.5,29.12C668.158,29.169 672.801,29.651 677.37,30.56C683.06,31.714 688.629,33.405 694,35.61C693.891,37.547 693.65,39.475 693.28,41.38C692.92,43.18 692.47,45.01 691.93,46.87C691.39,48.73 690.723,50.73 689.93,52.87C689.14,54.98 688.22,57.35 687.13,59.99C683.458,58.442 679.661,57.208 675.78,56.3C672.83,55.588 669.813,55.192 666.78,55.12C663.328,55.027 659.894,55.643 656.69,56.93C654.105,57.971 651.81,59.622 650,61.74C648.29,63.833 647.03,66.257 646.3,68.86C645.517,71.584 645.123,74.406 645.13,77.24C645.13,85.293 646.873,91.21 650.36,94.99C653.847,98.77 658.953,100.663 665.68,100.67L668.92,100.67L668.92,83C676.72,80.08 691.55,78 698.66,78L698.66,120C693.879,121.717 689.004,123.162 684.06,124.33C676.904,125.98 669.573,126.749 662.23,126.62Z" style="fill:rgb(0,85,151);fill-rule:nonzero;"/>
                    <path d="M294.05,161.91C293.861,162.313 293.568,162.659 293.2,162.91C292.853,163.117 292.454,163.221 292.05,163.21C291.509,163.176 290.987,162.997 290.54,162.69C289.99,162.35 289.33,161.96 288.54,161.54C287.69,161.077 286.8,160.692 285.88,160.39C284.721,160.018 283.507,159.842 282.29,159.87C281.187,159.85 280.087,160.001 279.03,160.32C278.177,160.584 277.383,161.008 276.69,161.57C276.067,162.089 275.58,162.751 275.27,163.5C274.95,164.277 274.79,165.11 274.8,165.95C274.762,166.98 275.099,167.99 275.75,168.79C276.453,169.602 277.313,170.262 278.28,170.73C279.428,171.309 280.622,171.791 281.85,172.17C283.19,172.59 284.56,173.05 285.95,173.53C287.35,174.001 288.719,174.559 290.05,175.2C291.357,175.81 292.562,176.62 293.62,177.6C294.689,178.609 295.549,179.819 296.15,181.16C296.839,182.777 297.18,184.522 297.15,186.28C297.17,188.379 296.79,190.463 296.03,192.42C295.299,194.298 294.181,196.001 292.75,197.42C291.243,198.88 289.453,200.017 287.49,200.76C285.214,201.608 282.799,202.022 280.37,201.98C278.842,201.98 277.318,201.83 275.82,201.53C274.349,201.236 272.91,200.804 271.52,200.24C270.178,199.7 268.892,199.03 267.68,198.24C266.521,197.494 265.451,196.618 264.49,195.63L267.09,191.32C267.335,191.003 267.637,190.735 267.98,190.53C268.327,190.32 268.725,190.21 269.13,190.21C269.789,190.25 270.421,190.491 270.94,190.9C271.58,191.35 272.35,191.9 273.23,192.42C274.212,193.032 275.254,193.541 276.34,193.94C277.715,194.433 279.17,194.667 280.63,194.63C282.77,194.771 284.889,194.119 286.58,192.8C288.04,191.468 288.817,189.542 288.69,187.57C288.737,186.456 288.401,185.358 287.74,184.46C287.05,183.62 286.187,182.938 285.21,182.46C284.071,181.874 282.875,181.408 281.64,181.07C280.3,180.69 278.94,180.28 277.56,179.83C276.168,179.381 274.806,178.847 273.48,178.23C272.161,177.618 270.952,176.794 269.9,175.79C268.811,174.723 267.953,173.443 267.38,172.03C266.697,170.255 266.374,168.361 266.43,166.46C266.419,164.694 266.759,162.944 267.43,161.31C268.131,159.632 269.177,158.119 270.5,156.87C271.949,155.519 273.648,154.463 275.5,153.76C277.646,152.949 279.926,152.552 282.22,152.59C284.908,152.56 287.58,153.01 290.11,153.92C292.397,154.731 294.492,156.008 296.26,157.67L294.05,161.91Z" style="fill:rgb(0,85,151);fill-rule:nonzero;"/>
                    <path d="M357.32,177.29C357.351,180.655 356.75,183.996 355.55,187.14C354.429,190.064 352.728,192.731 350.55,194.98C348.362,197.218 345.733,198.979 342.83,200.15C336.393,202.611 329.267,202.611 322.83,200.15C319.914,198.982 317.271,197.221 315.07,194.98C312.892,192.731 311.191,190.064 310.07,187.14C307.71,180.791 307.71,173.799 310.07,167.45C311.191,164.526 312.892,161.859 315.07,159.61C317.271,157.369 319.914,155.608 322.83,154.44C329.264,151.961 336.396,151.961 342.83,154.44C348.697,156.799 353.309,161.52 355.53,167.44C356.742,170.581 357.349,173.923 357.32,177.29ZM348.09,177.29C348.138,174.875 347.801,172.468 347.09,170.16C346.472,168.182 345.45,166.353 344.09,164.79C342.762,163.319 341.122,162.164 339.29,161.41C335.181,159.852 330.639,159.852 326.53,161.41C324.689,162.164 323.039,163.318 321.7,164.79C320.321,166.35 319.279,168.178 318.64,170.16C317.21,174.809 317.21,179.781 318.64,184.43C319.279,186.406 320.321,188.228 321.7,189.78C323.04,191.246 324.69,192.394 326.53,193.14C330.639,194.698 335.181,194.698 339.29,193.14C341.119,192.39 342.759,191.242 344.09,189.78C345.448,188.222 346.469,186.401 347.09,184.43C347.801,182.118 348.139,179.708 348.09,177.29Z" style="fill:rgb(0,85,151);fill-rule:nonzero;"/>
                    <path d="M381.21,194.69L400.57,194.69L400.57,202.11L372.22,202.11L372.22,152.6L381.22,152.6L381.21,194.69Z" style="fill:rgb(0,85,151);fill-rule:nonzero;"/>
                    <path d="M434.94,194.21C436.539,194.238 438.128,193.942 439.61,193.34C440.934,192.796 442.12,191.962 443.08,190.9C444.06,189.792 444.802,188.496 445.26,187.09C445.778,185.475 446.032,183.786 446.01,182.09L446.01,152.6L455.01,152.6L455.01,182.07C455.039,184.798 454.571,187.509 453.63,190.07C451.862,194.88 448.096,198.698 443.31,200.53C437.916,202.519 431.984,202.519 426.59,200.53C421.814,198.696 418.061,194.877 416.31,190.07C415.369,187.509 414.901,184.798 414.93,182.07L414.93,152.6L423.93,152.6L423.93,182C423.908,183.696 424.162,185.385 424.68,187C425.131,188.408 425.866,189.708 426.84,190.82C427.794,191.89 428.976,192.731 430.3,193.28C431.768,193.901 433.346,194.218 434.94,194.21Z" style="fill:rgb(0,85,151);fill-rule:nonzero;"/>
                    <path d="M506.92,152.59L506.92,160L492.38,160L492.38,202L483.38,202L483.38,160L468.78,160L468.78,152.61L506.92,152.59Z" style="fill:rgb(0,85,151);fill-rule:nonzero;"/>
                    <rect x="522.46" y="152.6" width="9" height="49.4" style="fill:rgb(0,85,151);fill-rule:nonzero;"/>
                    <path d="M597.39,177.29C597.421,180.655 596.82,183.996 595.62,187.14C594.499,190.064 592.798,192.731 590.62,194.98C588.432,197.218 585.803,198.979 582.9,200.15C576.463,202.611 569.337,202.611 562.9,200.15C559.984,198.982 557.341,197.221 555.14,194.98C552.962,192.731 551.261,190.064 550.14,187.14C547.78,180.791 547.78,173.799 550.14,167.45C551.261,164.526 552.962,161.859 555.14,159.61C557.341,157.369 559.984,155.608 562.9,154.44C569.334,151.961 576.466,151.961 582.9,154.44C588.768,156.804 593.385,161.522 595.62,167.44C596.819,170.584 597.419,173.925 597.39,177.29ZM588.17,177.29C588.199,174.872 587.842,172.465 587.11,170.16C586.492,168.182 585.47,166.353 584.11,164.79C582.782,163.319 581.142,162.164 579.31,161.41C575.201,159.852 570.659,159.852 566.55,161.41C564.709,162.164 563.059,163.318 561.72,164.79C560.341,166.35 559.299,168.178 558.66,170.16C557.23,174.809 557.23,179.781 558.66,184.43C559.299,186.406 560.341,188.228 561.72,189.78C563.06,191.246 564.71,192.394 566.55,193.14C570.659,194.698 575.201,194.698 579.31,193.14C581.139,192.39 582.779,191.242 584.11,189.78C585.468,188.222 586.489,186.401 587.11,184.43C587.841,182.122 588.199,179.711 588.17,177.29Z" style="fill:rgb(0,85,151);fill-rule:nonzero;"/>
                    <path d="M618,152.65C618.249,152.676 618.493,152.744 618.72,152.85C618.948,152.968 619.157,153.119 619.34,153.3C619.582,153.54 619.806,153.797 620.01,154.07L645.38,187.07C645.287,186.277 645.227,185.497 645.2,184.73C645.2,183.97 645.15,183.26 645.15,182.6L645.15,152.6L653.07,152.6L653.07,202L648.42,202C647.164,202.104 645.951,201.497 645.28,200.43L620,167.53C620.06,168.26 620.11,168.98 620.15,169.7C620.19,170.42 620.2,171.07 620.2,171.7L620.2,202L612.27,202L612.27,152.6L617,152.6C617.334,152.592 617.668,152.608 618,152.65Z" style="fill:rgb(0,85,151);fill-rule:nonzero;"/>
                    <path d="M695.69,161.91C695.497,162.314 695.2,162.659 694.83,162.91C694.483,163.117 694.084,163.221 693.68,163.21C693.141,163.181 692.621,163 692.18,162.69C691.62,162.35 690.96,161.96 690.18,161.54C689.333,161.078 688.446,160.693 687.53,160.39C686.367,160.018 685.151,159.842 683.93,159.87C682.827,159.85 681.727,160.001 680.67,160.32C679.82,160.589 679.026,161.013 678.33,161.57C677.707,162.089 677.22,162.751 676.91,163.5C676.59,164.277 676.43,165.11 676.44,165.95C676.411,166.987 676.767,168 677.44,168.79C678.142,169.599 678.999,170.259 679.96,170.73C681.111,171.309 682.309,171.791 683.54,172.17C684.88,172.59 686.24,173.05 687.63,173.53C689.03,174.001 690.399,174.559 691.73,175.2C693.04,175.81 694.248,176.62 695.31,177.6C696.379,178.607 697.236,179.817 697.83,181.16C698.53,182.774 698.871,184.521 698.83,186.28C698.85,188.379 698.47,190.463 697.71,192.42C696.986,194.299 695.872,196.004 694.44,197.42C692.926,198.877 691.134,200.013 689.17,200.76C686.879,201.62 684.447,202.041 682,202C680.472,202 678.948,201.85 677.45,201.55C675.983,201.256 674.546,200.824 673.16,200.26C671.814,199.722 670.524,199.052 669.31,198.26C668.157,197.505 667.088,196.631 666.12,195.65L668.73,191.34C668.971,191.024 669.27,190.756 669.61,190.55C669.96,190.34 670.361,190.229 670.77,190.23C671.427,190.268 672.056,190.509 672.57,190.92C673.22,191.37 673.98,191.92 674.86,192.44C675.851,193.065 676.903,193.587 678,194C679.38,194.488 680.837,194.722 682.3,194.69C684.457,194.841 686.595,194.188 688.3,192.86C689.748,191.521 690.52,189.599 690.4,187.63C690.453,186.515 690.117,185.415 689.45,184.52C688.761,183.682 687.902,183 686.93,182.52C685.789,181.932 684.589,181.467 683.35,181.13C682.01,180.75 680.65,180.34 679.27,179.89C677.878,179.441 676.516,178.907 675.19,178.29C673.874,177.678 672.668,176.854 671.62,175.85C670.488,174.763 669.595,173.452 669,172C668.3,170.228 667.96,168.335 668,166.43C668.004,162.804 669.498,159.334 672.13,156.84C673.579,155.489 675.278,154.433 677.13,153.73C679.276,152.919 681.556,152.522 683.85,152.56C686.538,152.53 689.21,152.98 691.74,153.89C694.027,154.701 696.122,155.978 697.89,157.64L695.69,161.91Z" style="fill:rgb(0,85,151);fill-rule:nonzero;"/>
                    <path d="M444.68,74.7L465.54,30.14C463.54,29.65 462.95,29.77 459.73,29.53C456.51,29.29 453.3,29.16 450.13,29.16C447.69,29.16 444.887,29.283 441.72,29.53C439.015,29.708 436.325,30.072 433.67,30.62L413.87,72.51L413.87,30.81C411.281,30.194 408.651,29.766 406,29.53C403.33,29.28 400.84,29.16 398.51,29.16C396.18,29.16 393.51,29.28 390.92,29.53C388.255,29.781 385.609,30.209 383,30.81L383,125C385.838,125.561 388.706,125.958 391.59,126.19C394.15,126.37 396.46,126.46 398.59,126.46C400.72,126.46 402.79,126.37 405.35,126.19C408.234,125.958 411.102,125.561 413.94,125L413.94,79.74L436.5,125.07C438.93,125.651 441.406,126.019 443.9,126.17C447.007,126.41 450.147,126.53 453.32,126.53C455.76,126.53 458.623,126.41 461.91,126.17C464.676,125.999 467.426,125.632 470.14,125.07L444.68,74.7Z" style="fill:rgb(0,85,151);fill-rule:nonzero;"/>
                    <path d="M508.18,125L508.18,30.7C503.108,29.739 497.962,29.221 492.8,29.15C487.591,29.201 482.396,29.72 477.28,30.7L477.28,125C482.397,125.977 487.591,126.492 492.8,126.54C497.962,126.473 503.108,125.957 508.18,125Z" style="fill:rgb(0,85,151);fill-rule:nonzero;"/>
                    <path d="M353.37,85.31C360.755,79.525 365.128,70.69 365.25,61.31C365.25,43.45 349.18,28.83 329.35,28.83L327.35,28.83C319.815,28.889 312.289,29.38 304.81,30.3L313.41,51.3C314.5,51.11 315.604,51.02 316.71,51.03C326.83,51 335,58 335,66.62C335,74.41 328.13,80.85 319.29,81.96L337.29,125.17C340.071,125.741 342.887,126.119 345.72,126.3C348.89,126.55 351.61,126.64 355.03,126.64C357.83,126.64 360.72,126.51 363.71,126.27C366.443,126.063 369.161,125.696 371.85,125.17L353.37,85.31Z" style="fill:rgb(0,85,151);fill-rule:nonzero;"/>
                    <path d="M739.17,50.23C739.174,50.384 739.176,50.539 739.176,50.694C739.176,59.943 731.565,67.554 722.316,67.554C713.067,67.554 705.456,59.943 705.456,50.694C705.456,41.62 712.78,34.091 721.85,33.84L722.37,33.84C722.478,33.838 722.585,33.837 722.693,33.837C731.614,33.837 738.998,41.081 739.17,50L739.17,50.23ZM709.67,50.23C709.67,57.53 715.07,63.32 722.47,63.32C729.67,63.32 734.97,57.53 734.97,50.32C734.97,43.11 729.67,37.12 722.37,37.12C715.07,37.12 709.67,43 709.67,50.23ZM719.77,58.83L716,58.83L716,42.43C718.079,42.064 720.189,41.896 722.3,41.93C725.4,41.93 726.8,42.43 728,43.13C729.051,44.024 729.641,45.35 729.6,46.73C729.6,48.53 728.2,49.93 726.2,50.53L726.2,50.73C727.8,51.33 728.7,52.53 729.2,54.73C729.7,57.23 730,58.23 730.4,58.83L726.3,58.83C725.8,58.23 725.5,56.73 725,54.83C724.7,53.03 723.7,52.23 721.6,52.23L719.8,52.23L719.77,58.83ZM719.87,49.53L721.67,49.53C723.77,49.53 725.47,48.83 725.47,47.13C725.47,45.63 724.37,44.63 721.97,44.63C721.265,44.616 720.56,44.683 719.87,44.83L719.87,49.53Z" style="fill:rgb(0,85,151);fill-rule:nonzero;"/>
                </g>
            </g>
        </g>
        <g id="vyne">
            <path d="M1040.62,123C1040.62,123.55 1040.38,124.14 1040.38,124.69C1040.38,130.18 1045.97,131.95 1051.07,131.06C1055.68,130.25 1060.07,127.48 1061.07,123.29C1061.8,119.15 1062.77,114.6 1063.99,109.29L1064.72,107.89C1074.19,73.28 1095.56,41.53 1104.55,40.06C1107.22,39.62 1108.43,41.42 1108.43,43.78C1108.43,55.93 1085.12,92.78 1085.12,109.11C1085.12,120.03 1094.35,123.51 1104.06,121.81C1119.62,119.09 1133.33,100.25 1140.64,87.71C1141.87,102.84 1150.64,113.31 1169.88,109.94C1197.81,105.06 1214.81,86.36 1225.73,64.48C1226.16,63.672 1226.41,62.777 1226.46,61.86C1226.47,61.807 1226.47,61.754 1226.47,61.7C1226.47,60.943 1225.85,60.32 1225.09,60.32C1224.98,60.32 1224.87,60.334 1224.76,60.36C1223.55,60.56 1222.33,61.48 1220.88,63.52C1214.56,71.92 1202.18,93.37 1179.11,97.37C1164.05,99.98 1163.11,86.47 1163.11,78.54C1166.19,78.728 1169.29,78.563 1172.33,78.05C1198.08,73.66 1215.56,46.55 1215.56,29.39C1215.56,20.63 1210.95,14.59 1200.75,15.39C1197.84,14.07 1192.25,13.73 1186.91,14.59C1163.44,18.4 1143.91,51.08 1140.91,77.24C1137.76,81.74 1121.23,107.99 1110.65,109.82C1107.98,110.29 1106.76,109.05 1106.76,106.69C1106.76,95.62 1130.32,60.3 1130.32,39.86C1130.32,33.17 1126.68,24 1112.32,26.32C1099.69,28.37 1087.32,43.65 1077.32,62.41C1078.77,57.41 1082.9,49.28 1082.9,44.55C1082.9,39.27 1076.83,37.17 1071,38.12C1067.12,38.75 1063.23,40.84 1062,44.33C1054.81,63.91 1049.94,78.86 1046.22,94.33C1039.45,105.502 1030.93,115.519 1021,124C1036.54,54.09 1040.43,51.44 1040.43,46.5C1040.43,42.29 1033.63,40.5 1027.56,41.5C1023.43,42.17 1019.56,44.27 1018.56,47.5C1018.56,47.5 1015.65,57.7 1011.76,72.12C1001.08,105.37 996.22,127.55 983.11,129.82C979.46,130.45 978.01,128.12 978.01,123.69C978.01,116.49 983.11,98.28 987.96,81.24C990.88,70.8 994.76,60.77 994.76,54.32C994.76,49.72 987.48,47.4 981.16,48.42C976.79,49.13 973.16,51.2 972.42,55.01C967.08,78.62 954.93,109.15 954.93,127.85C954.93,139.51 959.79,146.44 974.36,143.85C984.56,142.07 992.82,134.92 999.13,123.85C997.68,130.54 996.46,136.85 995.49,142.52C970.96,158.27 945.22,170.42 945.22,190.81C945.22,201.01 958.09,206.63 969.99,204.45C989.18,200.95 1007.39,181.63 1018.32,136.14C1027.77,128.327 1036.08,119.24 1043.03,109.14C1042.15,113.6 1041.37,118.15 1040.62,123ZM1196.3,20C1199.94,19.4 1200.43,22.37 1200.43,25.23C1200.43,39.23 1179.78,71.01 1165.43,73.44C1164.79,73.58 1164.14,73.631 1163.49,73.59C1166.43,51.45 1182.46,22.2 1196.3,20ZM964.37,199.79C963.574,199.978 962.758,200.065 961.94,200.05C958.29,199.05 955.38,197.17 955.38,193.05C955.38,178.24 976.27,165.64 993.51,154.28C991.57,166.84 987.19,195.64 964.37,199.79Z" style="fill:rgb(76,183,72);fill-rule:nonzero;"/>
            <path d="M1244.21,163.63C1237.8,158.68 1231.37,155.36 1225.11,153.76C1198.07,146.94 1170.29,143.52 1142.4,143.58C1108.4,143.58 1072.61,148.5 1036.13,158.19L1035.94,158.24C1032.33,159.41 1031.94,161.67 1032.1,162.91C1032.5,167.08 1036.38,167.57 1055.03,169.91L1056.11,170.05L1064.52,171.14C1073.8,172.37 1082.52,173.53 1087.44,173.53C1088.37,173.546 1089.29,173.486 1090.21,173.35C1111.82,169.76 1133.69,167.988 1155.6,168.05C1183.79,168.05 1212.96,170.68 1244.77,176.05C1245.37,176.2 1245.99,176.281 1246.61,176.29C1248.46,176.386 1250.17,175.247 1250.8,173.5C1251.74,170.79 1249.89,168 1244.21,163.63Z" style="fill:rgb(76,183,72);fill-rule:nonzero;"/>
            <path d="M979.05,16.05C979.05,7.37 968.36,2.64 959.41,2.64C953.21,2.64 948.41,4.74 947.35,8.95C936.67,58.39 896.01,124.66 876.35,163.85C882.57,126.5 897,65.49 897,34.2C897,11.58 875.3,2.9 855,2.9C815.72,2.9 777.48,51.03 777.48,87.58C777.48,105.2 788.85,127.03 817.79,127.03C822.27,127.03 824.34,125.72 824.34,124.4C824.34,123.08 822.61,121.51 818.82,120.72C807.46,118.35 803,109.41 803,97.84C803,65.23 837.79,11.05 861.22,10.26C866.39,11.84 868.8,16.05 868.8,26.04C868.8,70.75 846.41,134.13 846.41,168.04C846.41,181.71 860.53,193.04 868.46,193.04C870.53,193.04 872.25,192.51 872.94,190.94C890.15,152 965.61,62.86 978.7,19.47C978.989,18.354 979.107,17.201 979.05,16.05Z" style="fill:rgb(76,183,72);fill-rule:nonzero;"/>
        </g>
    </g>
</svg>
