<?xml version="1.0" encoding="UTF-8" standalone="no"?>
<!DOCTYPE svg PUBLIC "-//W3C//DTD SVG 1.1//EN" "http://www.w3.org/Graphics/SVG/1.1/DTD/svg11.dtd">
<svg width="100%" height="100%" viewBox="0 0 564 810" version="1.1" xmlns="http://www.w3.org/2000/svg" xmlns:xlink="http://www.w3.org/1999/xlink" xml:space="preserve" xmlns:serif="http://www.serif.com/" style="fill-rule:evenodd;clip-rule:evenodd;stroke-linejoin:round;stroke-miterlimit:2;">
    <g transform="matrix(1,0,0,1,-670.166,0)">
        <g id="riverscape" transform="matrix(1,0,0,1,1751.64,-401.874)">
            <rect x="-1081.48" y="401.874" width="564" height="810" style="fill:none;"/>
            <clipPath id="_clip1">
                <rect x="-1081.48" y="401.874" width="564" height="810"/>
            </clipPath>
            <g clip-path="url(#_clip1)">
                <g transform="matrix(1,0,0,1,-1276.28,314.467)">
                    <rect x="195.325" y="88.28" width="564" height="810"/>
                </g>
                <g transform="matrix(1.8617,0,0,1.8617,1038.91,41.5996)">
                    <g transform="matrix(1,0,0,1,-1081.48,401.874)">
                        <path d="M10.896,18.07L7.06,12.404L3.99,12.404L3.99,18.07L0,18.07L0,0.307L8.134,0.307C12.278,0.307 14.887,2.45 14.887,6.126C14.887,9.035 13.352,10.873 11.05,11.638L15.347,18.07L10.896,18.07ZM11.05,6.279C11.05,4.594 9.822,3.676 7.98,3.676L4.144,3.676L4.144,8.729L8.134,8.729C9.822,8.882 11.05,7.963 11.05,6.279Z" style="fill:white;fill-rule:nonzero;"/>
                    </g>
                    <g transform="matrix(1,0,0,1,-1081.48,401.874)">
                        <rect x="21.488" y="0.307" width="3.99" height="17.916" style="fill:white;fill-rule:nonzero;"/>
                    </g>
                    <g transform="matrix(1,0,0,1,-1081.48,401.874)">
                        <path d="M41.44,18.223L37.91,18.223L30.697,0.307L34.994,0.307L39.598,12.864L44.202,0.307L48.499,0.307L41.44,18.223Z" style="fill:white;fill-rule:nonzero;"/>
                    </g>
                    <g transform="matrix(1,0,0,1,-1081.48,401.874)">
                        <path d="M54.023,18.223L54.023,0.307L67.528,0.307L67.528,3.829L58.013,3.829L58.013,7.504L66.454,7.504L66.454,11.026L58.013,11.026L58.013,14.701L67.681,14.701L67.681,18.223L54.023,18.223Z" style="fill:white;fill-rule:nonzero;"/>
                    </g>
                    <g transform="matrix(1,0,0,1,-1081.48,401.874)">
                        <path d="M85.026,18.07L81.189,12.404L78.119,12.404L78.119,18.07L74.129,18.07L74.129,0.307L82.263,0.307C86.407,0.307 89.016,2.451 89.016,6.126C89.016,9.035 87.481,10.873 85.179,11.639L89.476,18.07L85.026,18.07ZM85.179,6.279C85.179,4.595 83.951,3.676 82.11,3.676L78.119,3.676L78.119,8.729L82.11,8.729C83.951,8.882 85.179,7.963 85.179,6.279Z" style="fill:white;fill-rule:nonzero;"/>
                    </g>
                    <g transform="matrix(1,0,0,1,-1081.48,401.874)">
                        <path d="M101.6,18.376C98.837,18.376 96.228,17.457 94.08,15.466L96.382,12.71C97.917,14.088 99.605,14.854 101.753,14.854C103.288,14.854 104.362,14.241 104.362,13.169C104.362,12.251 103.748,11.638 100.833,10.872C97.303,9.954 94.847,9.035 94.847,5.36C94.847,2.144 97.456,0 101.14,0C103.749,0 105.897,0.766 107.739,2.297L105.744,5.206C104.209,4.135 102.674,3.522 101.14,3.522C99.605,3.522 98.837,4.288 98.837,5.053C98.837,6.278 99.605,6.585 102.674,7.35C106.358,8.269 108.353,9.647 108.353,12.71C108.199,16.385 105.437,18.376 101.6,18.376Z" style="fill:white;fill-rule:nonzero;"/>
                    </g>
                    <g transform="matrix(1,0,0,1,-1081.48,401.874)">
                        <path d="M122.314,18.376C117.096,18.376 113.106,14.394 113.106,9.188C113.106,4.135 116.943,0 122.468,0C125.844,0 127.839,1.072 129.527,2.756L127.072,5.666C125.691,4.441 124.309,3.675 122.468,3.675C119.398,3.675 117.25,6.125 117.25,9.188C117.25,12.251 119.398,14.854 122.468,14.854C124.463,14.854 125.691,14.088 127.225,12.71L129.681,15.16C127.839,17.151 125.844,18.376 122.314,18.376Z" style="fill:white;fill-rule:nonzero;"/>
                    </g>
                    <g transform="matrix(1,0,0,1,-1081.48,401.874)">
                        <path d="M147.331,18.07L145.643,14.089L138.123,14.089L136.435,18.07L132.445,18.07L140.118,0.154L143.801,0.154L151.475,18.07L147.331,18.07ZM141.96,4.901L139.658,10.72L144.415,10.72L141.96,4.901Z" style="fill:white;fill-rule:nonzero;"/>
                    </g>
                    <g transform="matrix(1,0,0,1,-1081.48,401.874)">
                        <path d="M162.524,12.711L159.608,12.711L159.608,18.07L155.618,18.07L155.618,0.307L162.985,0.307C167.282,0.307 169.891,2.757 169.891,6.432C169.891,10.567 166.668,12.711 162.524,12.711ZM165.9,6.432C165.9,4.748 164.673,3.676 162.678,3.676L159.608,3.676L159.608,9.188L162.678,9.188C164.673,9.188 165.9,8.117 165.9,6.432Z" style="fill:white;fill-rule:nonzero;"/>
                    </g>
                    <g transform="matrix(1,0,0,1,-1081.48,401.874)">
                        <path d="M174.341,18.223L174.341,0.307L187.847,0.307L187.847,3.829L178.332,3.829L178.332,7.504L186.772,7.504L186.772,11.026L178.332,11.026L178.332,14.701L188,14.701L188,18.223L174.341,18.223Z" style="fill:white;fill-rule:nonzero;"/>
                    </g>
                </g>
            </g>
        </g>
    </g>
</svg>
