<svg width="201" height="201" viewBox="0 0 201 201" fill="none" xmlns="http://www.w3.org/2000/svg">
<path d="M155.045 168.682H141.409V134.591H155.045M59.5909 168.682H45.9545V134.591H59.5909M175.5 45.9545V107.318C175.5 110.935 174.063 114.403 171.506 116.961C168.949 119.518 165.48 120.955 161.864 120.955H39.1364C35.5198 120.955 32.0513 119.518 29.494 116.961C26.9367 114.403 25.5 110.935 25.5 107.318V45.9545C25.5 42.338 26.9367 38.8695 29.494 36.3122C32.0513 33.7549 35.5198 32.3182 39.1364 32.3182H161.864C165.48 32.3182 168.949 33.7549 171.506 36.3122C174.063 38.8695 175.5 42.338 175.5 45.9545ZM161.864 45.9545H39.1364V107.318H161.864M155.045 59.5909H120.955V73.2273H155.045M141.409 80.0454H120.955V93.6818H141.409M114.136 93.6818H45.9545L64.5682 68.8636L78.2045 87.4773L83.1818 83.7954L74.5909 72L86.25 56.5227L114.136 93.6818Z" fill="url(#paint0_linear_4_39)"/>
<defs>
<linearGradient id="paint0_linear_4_39" x1="100.5" y1="32.3182" x2="100.5" y2="168.682" gradientUnits="userSpaceOnUse">
<stop stop-color="#00DC82"/>
<stop offset="1" stop-color="#00DC82"/>
</linearGradient>
</defs>
</svg>
