<svg width="200" height="201" viewBox="0 0 200 201" fill="none" xmlns="http://www.w3.org/2000/svg">
<path d="M169.462 110.775C170.122 122.139 164.916 133.063 155.605 139.735L161.251 150.659C162.937 153.958 163.157 157.844 161.69 161.289C160.297 164.735 157.438 167.448 153.919 168.621L148.127 170.454C145.715 171.263 143.112 171.31 140.673 170.589C138.233 169.867 136.074 168.412 134.49 166.422L118.947 148.093C112.422 146.993 106.264 144.207 101.058 140.028C97.3926 141.128 93.7268 141.714 90.061 141.714C83.6092 141.714 77.1574 139.735 71.732 135.922C67.8463 137.095 63.8873 137.608 59.8549 137.535C54.063 137.608 48.3443 136.435 42.9923 134.236C37.8381 131.941 33.4338 128.242 30.2833 123.561C27.1327 118.881 25.363 113.408 25.1765 107.769C24.59 102.49 25.4698 97.1382 27.7426 92.2993C25.6164 86.8006 25.3965 80.7887 27.2294 75.2167C29.9421 68.2517 35.0742 62.4598 41.4526 58.794C45.705 46.4037 57.6554 38.119 70.7789 38.9988C82.5095 28.0014 100.472 26.8284 113.522 36.2861C116.601 35.4796 119.827 35.0397 123.053 35.0397C133.024 34.8198 142.482 39.2187 148.714 47.0635C163.67 50.9492 174.374 64.2927 174.961 79.8356C175.327 87.9737 173.128 95.9651 168.655 102.783C169.169 105.423 169.462 108.062 169.462 110.775ZM132.804 100.437C136.983 100.951 140.282 104.103 140.282 108.282C140.282 110.227 139.51 112.091 138.135 113.466C136.76 114.841 134.895 115.614 132.951 115.614H128.332C125.986 122.212 121.88 128.004 116.455 132.403C118.288 133.063 120.194 133.429 122.1 133.943C159.711 133.429 155.312 110.482 155.312 110.115C155.218 107.621 154.632 105.17 153.59 102.902C152.547 100.634 151.068 98.5939 149.236 96.8984C147.404 95.2028 145.256 93.885 142.915 93.0204C140.573 92.1558 138.084 91.7613 135.59 91.8594C133.646 91.8594 131.781 91.087 130.406 89.712C129.031 88.3371 128.258 86.4723 128.258 84.5278C128.258 82.5834 129.031 80.7186 130.406 79.3436C131.781 77.9687 133.646 77.1963 135.59 77.1963C144.608 77.4162 153.259 80.7887 160.004 86.7273C160.371 84.6012 160.591 82.4017 160.591 80.2022C160.151 71.1111 156.045 63.193 139.549 61.6533C130.385 39.9519 107.29 51.9757 107.29 58.7207C107.07 60.407 108.83 63.9994 109.123 64.2194C111.068 64.2194 112.932 64.9918 114.307 66.3668C115.682 67.7417 116.455 69.6065 116.455 71.551C116.455 75.5833 113.155 78.8825 109.123 78.8825C105.237 78.7359 101.572 77.2696 98.6389 74.7768C95.1198 77.0496 91.0874 78.4426 86.9084 78.8825C82.7294 79.2491 79.2836 76.3165 79.0636 72.2841C78.9307 71.3267 78.9944 70.3523 79.2507 69.4203C79.507 68.4884 79.9507 67.6185 80.5545 66.8637C81.1583 66.1089 81.9096 65.4852 82.7626 65.0305C83.6155 64.5759 84.5522 64.2999 85.5154 64.2194C86.6885 64.0727 92.4071 63.193 92.4071 58.5741C92.4071 53.7352 94.24 49.1163 97.3926 45.4506C90.6475 43.6177 83.3893 46.0371 76.0577 54.9083C62.5676 52.7821 57.0689 54.615 53.0365 68.9116C46.0715 72.3574 42.4057 74.7768 40.7928 82.1084C48.7109 80.4955 56.849 81.1553 64.4005 83.9413C68.0663 85.3343 70.1191 89.44 68.7261 93.399C67.3331 97.2115 63.0808 99.1177 59.2684 97.7247C53.9163 95.3786 47.9044 95.2319 42.4058 97.2848C40.0596 99.2643 40.0596 103.37 40.0596 106.596C40.0596 112.021 42.7723 117.08 47.3912 120.013C51.277 121.992 55.6026 123.019 59.9282 122.945C58.8285 121.039 57.8754 119.06 57.0689 117.007C56.4917 115.123 56.6675 113.089 57.5593 111.332C58.4512 109.576 59.9895 108.233 61.8508 107.587C63.712 106.942 65.7512 107.043 67.5394 107.87C69.3275 108.697 70.7253 110.185 71.4388 112.021C74.3714 120.379 81.8496 126.098 90.6475 127.051C100.692 126.538 109.636 120.599 114.035 111.435C115.722 101.317 123.86 100.437 132.804 100.437ZM147.467 155.204L142.922 145.673L137.716 146.846L145.048 156.011L147.467 155.204ZM113.375 92.0794C113.439 90.2064 112.783 88.3802 111.542 86.9758C110.302 85.5714 108.57 84.6954 106.704 84.5278C101.498 84.2346 96.4395 85.9942 92.5537 89.44C88.3747 93.6923 86.1753 99.5576 86.3952 105.496C86.3952 107.441 87.1676 109.305 88.5426 110.68C89.9175 112.055 91.7823 112.828 93.7268 112.828C97.9058 112.828 101.058 109.529 101.058 105.496C101.058 103.517 101.572 101.537 102.745 99.9242C103.624 99.191 104.724 98.8244 105.897 98.8244C109.93 99.0444 113.375 96.0384 113.375 92.0794Z" fill="url(#paint0_linear_4_37)"/>
<defs>
<linearGradient id="paint0_linear_4_37" x1="100" y1="29.9026" x2="100" y2="171.097" gradientUnits="userSpaceOnUse">
<stop stop-color="#00DC82"/>
<stop offset="1" stop-color="#00DC82"/>
</linearGradient>
</defs>
</svg>
