<svg width="201" height="200" viewBox="0 0 201 200" fill="none" xmlns="http://www.w3.org/2000/svg">
<path d="M145.5 145C137.175 145 130.5 151.675 130.5 160C130.5 163.978 132.08 167.794 134.893 170.607C137.706 173.42 141.522 175 145.5 175C149.478 175 153.294 173.42 156.107 170.607C158.92 167.794 160.5 163.978 160.5 160C160.5 156.022 158.92 152.206 156.107 149.393C153.294 146.58 149.478 145 145.5 145ZM25.5 25V40H40.5L67.5 96.925L57.3 115.3C56.175 117.4 55.5 119.875 55.5 122.5C55.5 126.478 57.0804 130.294 59.8934 133.107C62.7064 135.92 66.5218 137.5 70.5 137.5H160.5V122.5H73.65C73.1527 122.5 72.6758 122.302 72.3242 121.951C71.9725 121.599 71.775 121.122 71.775 120.625C71.775 120.25 71.85 119.95 72 119.725L78.75 107.5H134.625C140.25 107.5 145.2 104.35 147.75 99.775L174.6 51.25C175.125 50.05 175.5 48.775 175.5 47.5C175.5 45.5109 174.71 43.6032 173.303 42.1967C171.897 40.7902 169.989 40 168 40H57.075L50.025 25M70.5 145C62.175 145 55.5 151.675 55.5 160C55.5 163.978 57.0804 167.794 59.8934 170.607C62.7064 173.42 66.5218 175 70.5 175C74.4782 175 78.2936 173.42 81.1066 170.607C83.9196 167.794 85.5 163.978 85.5 160C85.5 156.022 83.9196 152.206 81.1066 149.393C78.2936 146.58 74.4782 145 70.5 145Z" fill="url(#paint0_linear_4_35)"/>
<defs>
<linearGradient id="paint0_linear_4_35" x1="100.5" y1="25" x2="100.5" y2="175" gradientUnits="userSpaceOnUse">
<stop stop-color="#00DC82"/>
<stop offset="1" stop-color="#00DC82"/>
</linearGradient>
</defs>
</svg>
