<svg width="200" height="200" viewBox="0 0 200 200" fill="none" xmlns="http://www.w3.org/2000/svg">
<path d="M99.935 175L56.5366 162.952L46.8652 54.4789H153.135L143.453 162.935L99.935 175Z" fill="#264DE4"/>
<path d="M135.165 156.029L143.438 63.3475H100V165.778L135.165 156.029Z" fill="#2965F1"/>
<path d="M69.0362 103.579L70.2284 116.883H99.9998V103.579H69.0362ZM66.6401 76.6517L67.8494 89.9555H99.9998V76.6517H66.6401ZM99.9998 138.13L99.9415 138.146L85.1252 134.145L84.1779 123.535H70.8229L72.6866 144.424L99.9386 151.989L99.9998 151.972V138.13Z" fill="#EBEBEB"/>
<path d="M71.8749 25H87.9876V31.7383H78.6133V38.4767H87.9884V45.2146H71.8749V25ZM91.2106 25H107.324V30.8594H97.9489V32.0312H107.324V45.5079H91.211V39.3548H100.586V38.183H91.2101L91.2106 25ZM110.547 25H126.66V30.8594H117.285V32.0312H126.66V45.5079H110.547V39.3548H119.921V38.183H110.547L110.547 25Z" fill="black"/>
<path d="M130.878 103.579L133.28 76.6517H99.9537V89.9555H118.7L117.489 103.579H99.9537V116.883H116.336L114.791 134.137L99.9533 138.142V151.982L127.227 144.424L127.427 142.176L130.554 107.151L130.878 103.579Z" fill="white"/>
</svg>
