<svg width="201" height="200" viewBox="0 0 201 200" fill="none" xmlns="http://www.w3.org/2000/svg">
<path d="M75.5 175C89.3 175 100.5 163.8 100.5 150V125H75.5C61.7 125 50.5 136.2 50.5 150C50.5 163.8 61.7 175 75.5 175Z" fill="#0ACF83"/>
<path d="M50.5 100C50.5 86.2 61.7 75 75.5 75H100.5V125H75.5C61.7 125 50.5 113.8 50.5 100Z" fill="#A259FF"/>
<path d="M50.5 50C50.5 36.2 61.7 25 75.5 25H100.5V75H75.5C61.7 75 50.5 63.8 50.5 50Z" fill="#F24E1E"/>
<path d="M100.5 25H125.5C139.3 25 150.5 36.2 150.5 50C150.5 63.8 139.3 75 125.5 75H100.5V25Z" fill="#FF7262"/>
<path d="M150.5 100C150.5 113.8 139.3 125 125.5 125C111.7 125 100.5 113.8 100.5 100C100.5 86.2 111.7 75 125.5 75C139.3 75 150.5 86.2 150.5 100Z" fill="#1ABCFE"/>
</svg>
