<svg width="200" height="200" viewBox="0 0 200 200" fill="none" xmlns="http://www.w3.org/2000/svg">
<path d="M55 25L32.5 47.5H47.5V70H32.5L55 92.5L77.5 70H62.5V47.5H77.5L55 25ZM107.5 62.5C105.511 62.5 103.603 63.2902 102.197 64.6967C100.79 66.1032 100 68.0109 100 70V145L76 132.1H74.35C72.25 132.1 70.225 132.925 68.8 134.5L63.25 140.275L100 171.775C101.95 173.875 104.65 175 107.5 175H156.25C159.234 175 162.095 173.815 164.205 171.705C166.315 169.595 167.5 166.734 167.5 163.75V131.05C167.5 126.7 165.1 122.725 161.125 120.925L124.075 104.5L115 103.525V70C115 68.0109 114.21 66.1032 112.803 64.6967C111.397 63.2902 109.489 62.5 107.5 62.5Z" fill="url(#paint0_linear_4_21)"/>
<defs>
<linearGradient id="paint0_linear_4_21" x1="100" y1="25" x2="100" y2="175" gradientUnits="userSpaceOnUse">
<stop stop-color="#00DC82"/>
<stop offset="1" stop-color="#00DC82"/>
</linearGradient>
</defs>
</svg>
