<svg width="201" height="201" viewBox="0 0 201 201" fill="none" xmlns="http://www.w3.org/2000/svg">
<g clip-path="url(#clip0_4_19)">
<path d="M66.4678 98.4899C66.4678 98.4899 66.4678 98.5065 66.4678 98.5166L64.3245 108.003C64.2088 108.54 63.6837 108.933 63.0762 108.933H60.4902C60.2987 108.933 60.1268 109.063 60.0739 109.25C57.6862 117.513 54.4529 123.193 50.1827 126.603C46.5496 129.507 42.0713 130.86 36.0903 130.86C30.7136 130.86 27.0906 129.097 24.0158 125.617C19.9536 121.017 18.2726 113.487 19.2898 104.413C21.126 87.3799 29.7856 70.1933 46.4672 70.1933C51.5401 70.1466 55.523 71.7433 58.294 74.93C61.2233 78.3 62.7128 83.3766 62.7193 90.02C62.7094 90.6233 62.2175 91.11 61.6262 91.11H49.4064C48.9739 91.11 48.5875 90.7133 48.594 90.2766C48.4949 85.6833 47.1574 83.4433 44.5021 83.4433C39.8189 83.4433 37.0546 89.93 35.5883 93.5266C33.5406 98.5498 32.5003 104.003 32.7051 109.437C32.8008 111.967 33.2005 115.523 35.5553 116.997C37.6425 118.303 40.6215 117.437 42.4247 115.99C44.228 114.543 45.6778 112.04 46.2888 109.757C46.3746 109.44 46.3814 109.193 46.2987 109.083C46.2129 108.97 45.9751 108.943 45.7935 108.943H42.6559C42.319 108.943 41.9855 108.787 41.784 108.533C41.6156 108.32 41.5495 108.057 41.609 107.797L43.7557 98.2932C43.8614 97.8067 44.294 97.44 44.8257 97.3734V97.3499H65.4176C65.4673 97.3499 65.5167 97.3499 65.5631 97.3599C66.0981 97.4299 66.4746 97.9367 66.4647 98.4899H66.4678Z" fill="url(#paint0_linear_4_19)"/>
<path d="M101.925 87.5867C101.915 88.18 101.423 88.6667 100.832 88.6667H89.5764C88.8399 88.6667 88.2222 88.0567 88.2222 87.3133C88.2222 83.9633 87.0861 82.3333 84.7612 82.3333C82.4361 82.3333 80.9366 83.79 80.8937 86.3333C80.8442 89.17 82.4162 91.7467 86.8946 96.1767C92.7898 101.817 95.1511 106.813 95.0389 113.417C94.8539 124.097 87.7334 131 76.9009 131C71.3688 131 67.1415 129.49 64.331 126.513C61.4776 123.49 60.1697 119.053 60.4439 113.327C60.4569 112.733 60.9457 112.25 61.537 112.25H73.1788C73.4959 112.25 73.8096 112.407 74.021 112.673C74.2026 112.903 74.2785 113.187 74.2324 113.453C74.1034 115.52 74.4569 117.063 75.2528 117.917C75.7648 118.47 76.4749 118.75 77.3632 118.75C79.5133 118.75 80.7749 117.2 80.821 114.5C80.8607 112.167 80.1373 110.12 76.1942 105.983C71.1014 100.907 66.5337 95.6633 66.6758 87.4167C66.7585 82.6367 68.6211 78.2633 71.9206 75.1033C75.4079 71.7633 80.1805 70 85.7188 70C91.2674 70.04 95.4716 71.6533 98.2159 74.7967C100.815 77.7767 102.067 82.08 101.928 87.5867H101.925Z" fill="url(#paint1_linear_4_19)"/>
<path d="M136.814 128.99L136.886 72.1933C136.896 71.5967 136.424 71.11 135.833 71.11H118.412C117.827 71.11 117.569 71.6233 117.401 71.9633L92.1789 128.643V128.653C92.1789 128.653 92.1721 128.663 92.1689 128.667C91.8882 129.363 92.4198 130.11 93.1598 130.11H105.336C105.994 130.11 106.43 129.907 106.644 129.483L109.062 123.557C109.359 122.767 109.415 122.693 110.261 122.693H121.896C122.705 122.693 122.722 122.71 122.708 123.517L122.447 129.027C122.437 129.623 122.91 130.11 123.501 130.11H135.803C136.117 130.11 136.411 129.977 136.606 129.74C136.781 129.53 136.853 129.263 136.814 128.99ZM115.261 110.027C115.149 110.027 115.059 110.023 114.987 110.017C114.805 110 114.683 109.823 114.729 109.643C114.752 109.56 114.785 109.45 114.835 109.313L123.56 87.2967C123.636 87.08 123.732 86.8667 123.831 86.66C123.973 86.3634 124.145 86.3433 124.198 86.5633C124.244 86.7467 123.197 109.17 123.197 109.17C123.115 110.01 123.078 110.043 122.266 110.113L115.271 110.03H115.254L115.261 110.027Z" fill="url(#paint2_linear_4_19)"/>
<path d="M161.63 71.11H152.382C151.894 71.11 151.345 71.3734 151.217 71.9667C151.217 71.9667 138.346 128.953 138.346 128.96C138.29 129.223 138.35 129.483 138.521 129.7C138.723 129.953 139.056 130.11 139.393 130.11H150.952C151.573 130.11 151.999 129.8 152.115 129.26C152.115 129.26 153.515 122.82 153.518 122.8C153.618 122.297 153.446 121.907 153.003 121.67C152.795 121.56 152.587 121.45 152.382 121.34L150.378 120.277L148.383 119.217C148.125 119.08 147.868 118.943 147.613 118.807C147.485 118.74 147.405 118.607 147.409 118.46C147.412 118.243 147.59 118.067 147.805 118.067L154.139 118.097C156.035 118.107 157.931 117.97 159.794 117.62C172.912 115.15 181.624 104.433 181.875 89.8534C182.089 77.41 175.28 71.1034 161.64 71.1034L161.63 71.11ZM158.482 105.027H158.235C157.68 105.027 157.581 104.963 157.564 104.943C157.554 104.93 161.217 88.53 161.22 88.5067C161.313 88.0334 161.309 87.76 161.022 87.6C160.655 87.3934 155.309 84.5167 155.309 84.5167C155.18 84.4467 155.104 84.3134 155.107 84.1667C155.11 83.9534 155.285 83.7767 155.5 83.7767H163.955C166.587 83.86 168.053 86.26 167.984 90.36C167.862 97.46 164.552 104.777 158.482 105.027Z" fill="url(#paint3_linear_4_19)"/>
<path d="M171.036 130.11C172.938 130.11 174.428 128.633 174.428 126.643C174.428 124.653 172.938 123.177 171.036 123.177C169.134 123.177 167.628 124.653 167.628 126.643C167.628 128.633 169.13 130.11 171.036 130.11ZM168.437 126.63C168.437 124.94 169.431 123.833 171.036 123.833C172.641 123.833 173.619 124.937 173.619 126.63C173.619 128.323 172.641 129.437 171.036 129.437C169.431 129.437 168.437 128.333 168.437 126.63ZM169.547 128.49H170.626V127.157H170.94C171.749 127.157 171.396 128.333 171.594 128.49H172.714V128.433C172.502 128.377 172.842 126.9 171.905 126.743V126.727C172.36 126.63 172.654 126.297 172.654 125.797C172.654 125.08 172.142 124.693 171.317 124.693H169.54V128.49H169.547ZM170.626 126.353V125.463H170.996C171.366 125.463 171.578 125.58 171.578 125.907C171.578 126.207 171.366 126.35 170.996 126.35H170.626V126.353Z" fill="url(#paint4_linear_4_19)"/>
</g>
<defs>
<linearGradient id="paint0_linear_4_19" x1="42.7339" y1="70.1923" x2="42.7339" y2="130.86" gradientUnits="userSpaceOnUse">
<stop stop-color="#00DC82"/>
<stop offset="1" stop-color="#00DC82"/>
</linearGradient>
<linearGradient id="paint1_linear_4_19" x1="81.1734" y1="70" x2="81.1734" y2="131" gradientUnits="userSpaceOnUse">
<stop stop-color="#00DC82"/>
<stop offset="1" stop-color="#00DC82"/>
</linearGradient>
<linearGradient id="paint2_linear_4_19" x1="114.49" y1="71.11" x2="114.49" y2="130.11" gradientUnits="userSpaceOnUse">
<stop stop-color="#00DC82"/>
<stop offset="1" stop-color="#00DC82"/>
</linearGradient>
<linearGradient id="paint3_linear_4_19" x1="160.103" y1="71.1034" x2="160.103" y2="130.11" gradientUnits="userSpaceOnUse">
<stop stop-color="#00DC82"/>
<stop offset="1" stop-color="#00DC82"/>
</linearGradient>
<linearGradient id="paint4_linear_4_19" x1="171.028" y1="123.177" x2="171.028" y2="130.11" gradientUnits="userSpaceOnUse">
<stop stop-color="#00DC82"/>
<stop offset="1" stop-color="#00DC82"/>
</linearGradient>
<clipPath id="clip0_4_19">
<rect width="163" height="61" fill="white" transform="translate(19 70)"/>
</clipPath>
</defs>
</svg>
