<svg width="200" height="201" viewBox="0 0 200 201" fill="none" xmlns="http://www.w3.org/2000/svg">
<path d="M25 25.5H175V175.5H25V25.5Z" fill="#F7DF1E"/>
<path d="M64.4407 150.851L75.9193 143.904C78.1341 147.831 80.1486 151.153 84.9808 151.153C89.6126 151.153 92.5335 149.341 92.5335 142.294V94.365H106.629V142.493C106.629 157.093 98.0712 163.738 85.5849 163.738C74.3085 163.738 67.763 157.898 64.4402 150.85M114.286 149.341L125.763 142.695C128.785 147.63 132.712 151.254 139.659 151.254C145.5 151.254 149.224 148.334 149.224 144.306C149.224 139.473 145.398 137.761 138.954 134.943L135.431 133.431C125.26 129.103 118.515 123.665 118.515 112.187C118.515 101.614 126.569 93.5588 139.156 93.5588C148.117 93.5588 154.561 96.6806 159.193 104.836L148.217 111.885C145.8 107.556 143.183 105.844 139.155 105.844C135.027 105.844 132.409 108.462 132.409 111.885C132.409 116.114 135.027 117.827 141.068 120.445L144.592 121.954C156.574 127.09 163.32 132.326 163.32 144.105C163.32 156.793 153.352 163.74 139.96 163.74C126.871 163.74 118.413 157.497 114.285 149.341" fill="black"/>
</svg>
