<svg width="201" height="201" viewBox="0 0 201 201" fill="none" xmlns="http://www.w3.org/2000/svg">
<path d="M109.651 149.434H165.412C167.184 149.434 168.923 148.983 170.457 148.124C171.981 147.274 173.255 146.038 174.15 144.541C175.033 143.061 175.5 141.37 175.5 139.647C175.5 137.929 175.032 136.242 174.145 134.754L136.698 71.8391C135.803 70.342 134.53 69.1067 133.006 68.2573C131.465 67.3956 129.728 66.9441 127.962 66.946C126.191 66.946 124.452 67.3983 122.918 68.2573C121.394 69.1066 120.121 70.3419 119.227 71.8391L109.651 87.9366L90.9305 56.4577C90.0341 54.9611 88.7603 53.7261 87.2367 52.8764C85.6947 52.0157 83.9578 51.5645 82.1918 51.5657C80.4211 51.5657 78.6809 52.0181 77.1469 52.8764C75.6235 53.7262 74.35 54.9612 73.4537 56.4577L26.8535 134.754C25.9693 136.233 25.5016 137.924 25.5 139.647C25.5 141.365 25.9646 143.053 26.85 144.541C27.745 146.038 29.0185 147.274 30.5426 148.124C32.0842 148.985 33.8214 149.437 35.5875 149.434H70.5897C84.4582 149.434 94.6852 143.526 101.723 131.998L118.808 103.297L127.959 87.9366L155.425 134.074H118.808L109.651 149.434ZM70.0184 134.059L45.5918 134.053L82.2082 72.5399L100.478 103.297L88.2457 123.854C83.5723 131.333 78.2631 134.059 70.0189 134.059" fill="#00DC82"/>
</svg>
