<svg width="200" height="201" viewBox="0 0 200 201" fill="none" xmlns="http://www.w3.org/2000/svg">
<path d="M48.4772 90.8265H76.5267L56.6521 70.9519C49.0772 70.9519 42.9273 64.802 42.9273 57.1521C42.9273 53.5121 44.3733 50.0211 46.9472 47.4472C49.5211 44.8733 53.0121 43.4273 56.6521 43.4273C64.302 43.4273 70.4519 49.5772 70.4519 57.1521L90.3265 77.0267V48.9772C87.7663 46.3931 86.33 42.9026 86.33 39.2649C86.33 35.6273 87.7663 32.1367 90.3265 29.5526C91.5897 28.2691 93.0957 27.2498 94.7567 26.5541C96.4177 25.8583 98.2005 25.5 100.001 25.5C101.802 25.5 103.585 25.8583 105.246 26.5541C106.907 27.2498 108.413 28.2691 109.676 29.5526C115.001 34.8775 115.001 43.5773 109.676 48.9772V77.0267L129.626 57.1521C129.626 53.5121 131.072 50.0211 133.646 47.4472C136.22 44.8733 139.711 43.4273 143.351 43.4273C146.991 43.4273 150.482 44.8733 153.055 47.4472C155.629 50.0211 157.075 53.5121 157.075 57.1521C157.075 64.802 150.925 70.9519 143.351 70.9519L123.476 90.8265H151.525C154.11 88.2663 157.6 86.83 161.238 86.83C164.875 86.83 168.366 88.2663 170.95 90.8265C176.35 96.1514 176.35 104.851 170.95 110.176C165.625 115.501 156.925 115.501 151.525 110.176H123.476L143.351 130.126C150.925 130.126 157.075 136.201 157.075 143.851C157.075 147.491 155.629 150.982 153.055 153.555C150.482 156.129 146.991 157.575 143.351 157.575C135.701 157.575 129.626 151.425 129.626 143.851L109.676 123.976V152.025C115.001 157.425 115.001 166.125 109.676 171.45C104.351 176.85 95.6514 176.85 90.3265 171.45C87.7663 168.866 86.33 165.375 86.33 161.738C86.33 158.1 87.7663 154.61 90.3265 152.025V123.976L70.4519 143.851C70.4519 151.425 64.302 157.575 56.6521 157.575C53.0121 157.575 49.5211 156.129 46.9472 153.555C44.3733 150.982 42.9273 147.491 42.9273 143.851C42.9273 140.211 44.3733 136.72 46.9472 134.146C49.5211 131.572 53.0121 130.126 56.6521 130.126L76.5267 110.176H48.4772C43.0773 115.501 34.3775 115.501 29.0526 110.176C27.7691 108.913 26.7498 107.407 26.0541 105.746C25.3583 104.085 25 102.302 25 100.501C25 98.7005 25.3583 96.9177 26.0541 95.2567C26.7498 93.5957 27.7691 92.0897 29.0526 90.8265C31.6367 88.2663 35.1273 86.83 38.7649 86.83C42.4026 86.83 45.8931 88.2663 48.4772 90.8265Z" fill="url(#paint0_linear_4_12)"/>
<defs>
<linearGradient id="paint0_linear_4_12" x1="100" y1="25.5" x2="100" y2="175.5" gradientUnits="userSpaceOnUse">
<stop stop-color="#00DC82"/>
<stop offset="1" stop-color="#00DC82"/>
</linearGradient>
</defs>
</svg>
