<svg width="201" height="200" viewBox="0 0 201 200" fill="none" xmlns="http://www.w3.org/2000/svg">
<path d="M100.5 55C80.5 55 68 65 63 85C70.5 75 79.25 71.25 89.25 73.75C94.9553 75.1762 99.0334 79.3158 103.547 83.8973C110.901 91.3615 119.411 100 138 100C158 100 170.5 90 175.5 70C168 80 159.25 83.75 149.25 81.25C143.545 79.8238 139.467 75.6842 134.953 71.1027C127.599 63.6385 119.089 55 100.5 55ZM63 100C43 100 30.5 110 25.5 130C33 120 41.75 116.25 51.75 118.75C57.4553 120.176 61.5334 124.316 66.0475 128.897C73.401 136.362 81.9111 145 100.5 145C120.5 145 133 135 138 115C130.5 125 121.75 128.75 111.75 126.25C106.045 124.824 101.967 120.684 97.4525 116.103C90.099 108.638 81.5889 100 63 100Z" fill="url(#paint0_linear_4_10)"/>
<defs>
<linearGradient id="paint0_linear_4_10" x1="-391.2" y1="2935" x2="12563.7" y2="10404.6" gradientUnits="userSpaceOnUse">
<stop stop-color="#2298BD"/>
<stop offset="1" stop-color="#0ED7B5"/>
</linearGradient>
</defs>
</svg>
