<svg width="200" height="200" viewBox="0 0 200 200" fill="none" xmlns="http://www.w3.org/2000/svg">
<path d="M25.7676 27.0807C25.4583 25.8284 26.6195 24.7101 27.8591 25.0676L63.9734 35.4648C64.2975 35.4641 64.6152 35.5557 64.8892 35.7289L136.114 56.2345C136.409 56.2403 136.7 56.3244 136.953 56.4759L173.069 66.8743C174.31 67.2318 174.698 68.7987 173.768 69.6936L64.7806 174.531C63.8504 175.425 62.3003 174.977 61.991 173.724L43.9124 100.537C43.8882 100.461 43.8692 100.385 43.8555 100.307L25.7676 27.0807ZM56.7029 138.337L64.5491 170.1L88.1768 147.371L56.7029 138.337ZM81.041 113.218L58.1648 135.267L88.6394 144.017L81.041 113.218ZM84.4366 112.982L92.0111 143.683L114.825 121.739L84.4366 112.982ZM47.8348 102.435L55.4425 133.235L78.2914 111.211L47.8348 102.435ZM108.018 87.1849L84.7749 109.589L115.749 118.515L108.018 87.1849ZM111.275 86.3881L119.006 117.717L142.313 95.298L111.275 86.3881ZM72.0551 76.7888L48.7622 99.2129L79.7933 108.154L72.0551 76.7888ZM75.2992 75.9432L82.8981 106.742L105.774 84.6912L75.2992 75.9432ZM38.7079 65.4838L46.4409 96.7935L69.717 74.3856L38.7079 65.4838ZM135.155 61.1371L112.279 83.187L142.753 91.9361L135.155 61.1371ZM138.424 60.3885L146.131 91.6256L169.349 69.292L138.424 60.3885ZM99.0425 50.8095L76.2695 72.7328L106.601 81.4396L99.0425 50.8095ZM102.293 49.986L109.902 80.8215L132.785 58.7647L102.293 49.986ZM63.0547 40.3675L40.1785 62.4179L70.653 71.1659L63.0547 40.3675ZM66.3266 39.6311L73.9064 70.3523L96.7269 48.3837L66.3266 39.6311ZM29.7179 29.0916L37.4497 60.392L60.6759 38.0044L29.7179 29.0916Z" fill="black"/>
</svg>
