<svg width="200" height="200" viewBox="0 0 200 200" fill="none" xmlns="http://www.w3.org/2000/svg">
<path d="M35.6605 99.9979C35.6605 125.465 50.4597 147.472 71.9208 157.902L41.2308 73.8147C37.5524 82.0533 35.6543 90.9755 35.6605 99.9979ZM143.431 96.751C143.431 88.8003 140.575 83.2936 138.126 79.008C134.864 73.7083 131.807 69.2203 131.807 63.9206C131.807 58.0063 136.293 52.5007 142.611 52.5007C142.897 52.5007 143.167 52.536 143.445 52.5525C131.998 42.0654 116.748 35.6629 99.9985 35.6629C77.5216 35.6629 57.7469 47.1951 46.2429 64.6623C47.7522 64.7076 49.1745 64.7388 50.3832 64.7388C57.1122 64.7388 67.5293 63.923 67.5293 63.923C70.9979 63.7183 71.4067 68.8121 67.9422 69.2227C67.9422 69.2227 64.4565 69.6326 60.5779 69.8356L84.0083 139.525L98.0881 97.2981L88.0639 69.8338C84.5994 69.6309 81.3173 69.2209 81.3173 69.2209C77.8504 69.0174 78.2569 63.7165 81.7237 63.9212C81.7237 63.9212 92.349 64.7376 98.6704 64.7376C105.399 64.7376 115.817 63.9212 115.817 63.9212C119.287 63.7165 119.696 68.8103 116.23 69.2209C116.23 69.2209 112.737 69.6309 108.866 69.8338L132.117 138.995L138.534 117.55C141.315 108.652 143.432 102.26 143.432 96.7516M101.128 105.626L81.8243 161.719C87.7261 163.457 93.8467 164.34 99.9991 164.34C107.491 164.34 114.676 163.045 121.364 160.693C121.186 160.412 121.032 160.115 120.906 159.807L101.128 105.626ZM156.453 69.1315C156.745 71.3245 156.89 73.5346 156.886 75.747C156.886 82.276 155.667 89.615 151.994 98.7915L132.342 155.612C151.469 144.458 164.334 123.735 164.334 100C164.335 88.8144 161.478 78.2957 156.452 69.1315M99.9985 25.0023C58.6451 25.0023 25 58.645 25 99.9979C25 141.356 58.6451 174.998 99.9985 174.998C141.35 174.998 175 141.356 175 99.9979C174.999 58.645 141.35 25.0023 99.9985 25.0023ZM99.9991 171.56C60.5426 171.56 28.4392 139.457 28.4392 99.9979C28.4392 60.5414 60.5408 28.4409 99.9991 28.4409C139.454 28.4409 171.555 60.5414 171.555 99.9979C171.555 139.457 139.454 171.56 99.9991 171.56Z" fill="#464342"/>
</svg>
