<?xml version="1.0" encoding="UTF-8"?>
<svg id="Layer_2" data-name="Layer 2" xmlns="http://www.w3.org/2000/svg" xmlns:xlink="http://www.w3.org/1999/xlink" viewBox="0 0 1440 967.43">
  <defs>
    <linearGradient id="linear-gradient" x1="-238.69" y1="179.16" x2="-237.44" y2="179.16" gradientTransform="translate(133238.93 100340.69) scale(556.63 -556.63)" gradientUnits="userSpaceOnUse">
      <stop offset="0" stop-color="#fafafa"/>
      <stop offset=".23" stop-color="#f6f6f6"/>
      <stop offset=".46" stop-color="#eaeaea"/>
      <stop offset=".5" stop-color="#e7e7e7"/>
      <stop offset=".55" stop-color="#ebebeb"/>
      <stop offset=".75" stop-color="#f5f5f5"/>
      <stop offset="1" stop-color="#f8f8f8"/>
    </linearGradient>
    <clipPath id="clippath">
      <rect x="0" y="0" width="109.13" height="103.21" fill="none"/>
    </clipPath>
    <pattern id="Unnamed_Pattern_2" data-name="Unnamed Pattern 2" x="0" y="0" width="109.13" height="103.22" patternTransform="translate(4234.69 -16999.37) scale(1.23)" patternUnits="userSpaceOnUse" viewBox="0 0 109.13 103.22">
      <g>
        <rect width="109.13" height="103.22" fill="none"/>
        <rect x="0" y=".01" width="109.13" height="103.21" fill="none"/>
        <g clip-path="url(#clippath)">
          <g>
            <path d="M218.25,96.51c-4.63-.03-9.22-.75-13.64-2.13-4.4-1.39-8.99-2.12-13.61-2.16-4.63.03-9.22.75-13.64,2.13-8.87,2.84-18.41,2.84-27.28,0-4.43-1.38-9.03-2.1-13.67-2.13-4.63.03-9.22.75-13.64,2.13-4.42,1.38-9.01,2.1-13.64,2.13" fill="none" stroke="#ccc" stroke-linecap="square" stroke-width="4"/>
            <path d="M218.25,105.11c-4.63-.03-9.22-.75-13.64-2.13-4.41-1.38-8.99-2.1-13.61-2.13-4.64.03-9.24.75-13.67,2.13-8.87,2.84-18.41,2.84-27.28,0-4.42-1.38-9.01-2.1-13.64-2.13-4.63.03-9.22.75-13.64,2.13-4.42,1.38-9.01,2.1-13.64,2.13" fill="none" stroke="#ccc" stroke-linecap="square" stroke-width="4"/>
            <rect x="0" y="90.32" width="109.13" height="25.8" fill="#e6e6e6"/>
            <path d="M109.13,96.51c-4.63-.03-9.23-.75-13.65-2.13-4.41-1.39-9.01-2.12-13.64-2.16-4.63.04-9.23.77-13.64,2.16-4.42,1.38-9.01,2.1-13.64,2.13-4.63-.03-9.22-.75-13.64-2.13-4.41-1.39-9.01-2.12-13.64-2.16-4.63.04-9.23.77-13.64,2.16-4.42,1.38-9.01,2.1-13.64,2.13" fill="none" stroke="#ccc" stroke-linecap="square" stroke-width="4"/>
            <path d="M109.13,105.11c-4.63-.03-9.23-.75-13.65-2.13-4.42-1.38-9.01-2.1-13.64-2.13-4.63.03-9.22.75-13.64,2.13-4.42,1.38-9.01,2.1-13.64,2.13-4.63-.03-9.22-.75-13.64-2.13-4.42-1.38-9.01-2.1-13.64-2.13-4.63.03-9.22.75-13.64,2.13-4.42,1.38-9.01,2.1-13.64,2.13" fill="none" stroke="#ccc" stroke-linecap="square" stroke-width="4"/>
            <path d="M0,96.51c-4.63-.03-9.22-.75-13.64-2.13-4.41-1.39-9.01-2.12-13.64-2.16-4.63.04-9.23.77-13.64,2.16-4.42,1.38-9.01,2.1-13.64,2.13-4.63-.03-9.22-.75-13.64-2.13-4.41-1.39-9.01-2.12-13.64-2.16-4.63.04-9.23.77-13.64,2.16-4.42,1.38-9.01,2.1-13.64,2.13" fill="none" stroke="#ccc" stroke-linecap="square" stroke-width="4"/>
            <path d="M0,105.11c-4.63-.03-9.22-.75-13.64-2.13-4.42-1.38-9.01-2.1-13.64-2.13-4.63.03-9.22.75-13.64,2.13-4.42,1.38-9.01,2.1-13.64,2.13-4.63-.03-9.22-.75-13.64-2.13-4.42-1.38-9.01-2.1-13.64-2.13-4.63.03-9.22.75-13.64,2.13-4.42,1.38-9.01,2.1-13.64,2.13" fill="none" stroke="#ccc" stroke-linecap="square" stroke-width="4"/>
            <path d="M218.25,87.91c-4.63-.03-9.22-.75-13.64-2.13-4.41-1.38-8.99-2.1-13.61-2.13-4.63.03-9.22.75-13.64,2.13-8.87,2.84-18.41,2.84-27.28,0-4.42-1.38-9.01-2.1-13.64-2.13-4.63.03-9.22.75-13.64,2.13-4.42,1.38-9.01,2.1-13.64,2.13" fill="none" stroke="#ccc" stroke-linecap="square" stroke-width="4"/>
            <path d="M218.25,70.7c-4.63-.03-9.22-.74-13.64-2.12-4.41-1.38-8.99-2.1-13.61-2.13-4.63.03-9.23.74-13.64,2.13-8.87,2.83-18.41,2.83-27.28,0-4.41-1.39-9.01-2.1-13.64-2.13-4.63.02-9.23.74-13.64,2.13-4.42,1.38-9.01,2.09-13.64,2.12" fill="none" stroke="#ccc" stroke-linecap="square" stroke-width="4"/>
            <path d="M218.25,79.31c-4.63-.02-9.22-.72-13.64-2.09-4.4-1.39-8.99-2.12-13.61-2.17-4.64.04-9.25.77-13.67,2.17-8.87,2.84-18.41,2.84-27.28,0-4.42-1.38-9.01-2.1-13.64-2.13-4.63.03-9.22.75-13.64,2.13-4.42,1.38-9.01,2.1-13.64,2.13" fill="none" stroke="#ccc" stroke-linecap="square" stroke-width="4"/>
            <rect x="0" y="64.52" width="109.13" height="25.8" fill="#e6e6e6"/>
            <path d="M109.13,87.91c-4.63-.03-9.23-.75-13.65-2.13-4.42-1.38-9.01-2.1-13.64-2.13-4.63.03-9.22.75-13.64,2.13-4.42,1.38-9.01,2.1-13.64,2.13-4.63-.03-9.22-.75-13.64-2.13-4.42-1.38-9.01-2.1-13.64-2.13-4.63.03-9.22.75-13.64,2.13-4.42,1.38-9.01,2.1-13.64,2.13" fill="none" stroke="#ccc" stroke-linecap="square" stroke-width="4"/>
            <path d="M109.13,70.7c-4.63-.03-9.23-.74-13.65-2.12-4.41-1.39-9.01-2.11-13.64-2.13-4.63.03-9.23.74-13.64,2.13-4.42,1.38-9.01,2.09-13.64,2.12-4.63-.03-9.22-.74-13.64-2.12-4.41-1.39-9.01-2.1-13.64-2.13-4.63.03-9.23.74-13.64,2.13-4.42,1.38-9.01,2.09-13.64,2.12" fill="none" stroke="#ccc" stroke-linecap="square" stroke-width="4"/>
            <path d="M109.13,79.31c-4.63-.02-9.23-.72-13.65-2.09-4.42-1.38-9.01-2.1-13.64-2.13-4.63.03-9.22.75-13.64,2.13-4.42,1.38-9.01,2.1-13.64,2.13-4.63-.03-9.22-.75-13.64-2.13s-9.01-2.1-13.64-2.13c-4.63.03-9.22.75-13.64,2.13-4.42,1.37-9.01,2.07-13.64,2.09" fill="none" stroke="#ccc" stroke-linecap="square" stroke-width="4"/>
            <path d="M0,87.91c-4.63-.03-9.22-.75-13.64-2.13-4.42-1.38-9.01-2.1-13.64-2.13-4.63.03-9.22.75-13.64,2.13s-9.01,2.1-13.64,2.13c-4.63-.03-9.22-.75-13.64-2.13-4.42-1.38-9.01-2.1-13.64-2.13-4.63.03-9.22.75-13.64,2.13-4.42,1.38-9.01,2.1-13.64,2.13" fill="none" stroke="#ccc" stroke-linecap="square" stroke-width="4"/>
            <path d="M0,70.7c-4.63-.03-9.22-.74-13.64-2.12-4.41-1.39-9.01-2.1-13.64-2.13-4.63.03-9.23.74-13.64,2.13-4.42,1.38-9.01,2.09-13.64,2.12-4.63-.03-9.22-.74-13.64-2.12-4.41-1.39-9.01-2.1-13.64-2.13-4.63.02-9.23.74-13.64,2.13-4.42,1.38-9.01,2.09-13.64,2.12" fill="none" stroke="#ccc" stroke-linecap="square" stroke-width="4"/>
            <path d="M0,79.31c-4.63-.02-9.22-.72-13.64-2.09-4.42-1.38-9.01-2.1-13.64-2.13-4.63.03-9.22.75-13.64,2.13-4.42,1.38-9.01,2.1-13.64,2.13-4.63-.03-9.22-.75-13.64-2.13-4.42-1.38-9.01-2.1-13.64-2.13-4.63.03-9.22.75-13.64,2.13-4.42,1.38-9.01,2.1-13.64,2.13" fill="none" stroke="#ccc" stroke-linecap="square" stroke-width="4"/>
            <path d="M218.25,62.1c-4.63-.03-9.22-.74-13.64-2.12-4.41-1.38-8.99-2.1-13.61-2.13-4.63.03-9.23.74-13.64,2.13-8.87,2.83-18.41,2.83-27.28,0-4.41-1.39-9.01-2.1-13.64-2.13-4.63.02-9.23.74-13.64,2.13-4.42,1.38-9.01,2.09-13.64,2.12" fill="none" stroke="#ccc" stroke-linecap="square" stroke-width="4"/>
            <path d="M218.25,44.9c-4.63-.02-9.23-.74-13.64-2.13-8.87-2.84-18.41-2.84-27.28,0s-18.41,2.84-27.28,0-18.41-2.84-27.28,0c-4.42,1.39-9.01,2.1-13.64,2.13" fill="none" stroke="#ccc" stroke-linecap="square" stroke-width="4"/>
            <path d="M218.25,53.5c-4.63-.02-9.23-.74-13.64-2.13-8.87-2.83-18.41-2.83-27.28,0-8.87,2.84-18.41,2.84-27.28,0-8.87-2.83-18.41-2.83-27.28,0-4.42,1.39-9.01,2.1-13.64,2.13" fill="none" stroke="#ccc" stroke-linecap="square" stroke-width="4"/>
            <rect x="0" y="38.71" width="109.13" height="25.8" fill="#e6e6e6"/>
            <path d="M109.13,62.1c-4.63-.03-9.23-.74-13.65-2.12-4.41-1.39-9.01-2.11-13.64-2.13-4.63.03-9.23.74-13.64,2.13-4.42,1.38-9.01,2.09-13.64,2.12-4.63-.03-9.22-.74-13.64-2.12-4.41-1.39-9.01-2.1-13.64-2.13-4.63.03-9.23.74-13.64,2.13C9.22,61.36,4.63,62.07,0,62.1" fill="none" stroke="#ccc" stroke-linecap="square" stroke-width="4"/>
            <path d="M109.13,44.9c-4.63-.03-9.23-.74-13.65-2.13-8.87-2.84-18.41-2.84-27.28,0-8.87,2.84-18.41,2.84-27.28,0-4.42-1.38-9.01-2.1-13.64-2.13-4.63.03-9.22.75-13.64,2.13C9.23,44.16,4.63,44.87,0,44.9" fill="none" stroke="#ccc" stroke-linecap="square" stroke-width="4"/>
            <path d="M109.13,53.5c-4.63-.03-9.23-.74-13.65-2.13-8.87-2.83-18.41-2.83-27.28,0-8.87,2.84-18.41,2.84-27.28,0-4.42-1.39-9.01-2.11-13.64-2.15-4.63.03-9.22.74-13.64,2.12C9.23,52.74,4.63,53.47,0,53.5" fill="none" stroke="#ccc" stroke-linecap="square" stroke-width="4"/>
            <path d="M0,62.1c-4.63-.03-9.22-.74-13.64-2.12-4.41-1.39-9.01-2.1-13.64-2.13-4.63.03-9.23.74-13.64,2.13-4.42,1.38-9.01,2.09-13.64,2.12-4.63-.03-9.22-.74-13.64-2.12-4.41-1.39-9.01-2.1-13.64-2.13-4.63.02-9.23.74-13.64,2.13-4.42,1.38-9.01,2.09-13.64,2.12" fill="none" stroke="#ccc" stroke-linecap="square" stroke-width="4"/>
            <path d="M0,44.9c-4.63-.02-9.23-.74-13.64-2.13-4.42-1.38-9.01-2.1-13.64-2.13-4.63.03-9.22.75-13.64,2.13-4.41,1.39-9.01,2.1-13.64,2.13-4.63-.02-9.23-.74-13.64-2.13-4.42-1.38-9.01-2.1-13.64-2.13-4.63.03-9.22.75-13.64,2.13-4.42,1.39-9.01,2.1-13.64,2.13" fill="none" stroke="#ccc" stroke-linecap="square" stroke-width="4"/>
            <path d="M0,53.5c-4.63-.02-9.23-.74-13.64-2.13-4.42-1.39-9.01-2.11-13.64-2.15-4.63.03-9.22.74-13.64,2.12-4.41,1.39-9.01,2.1-13.64,2.13-4.63-.01-9.22-.72-13.64-2.1-4.42-1.39-9.01-2.11-13.64-2.15-4.63.03-9.22.74-13.64,2.12-4.42,1.39-9.01,2.1-13.64,2.13" fill="none" stroke="#ccc" stroke-linecap="square" stroke-width="4"/>
            <path d="M218.25,36.3c-4.63-.03-9.22-.75-13.64-2.13-8.87-2.84-18.41-2.84-27.28,0s-18.41,2.84-27.28,0-18.41-2.84-27.28,0c-4.42,1.38-9.01,2.1-13.64,2.13" fill="none" stroke="#ccc" stroke-linecap="square" stroke-width="4"/>
            <path d="M218.25,19.1c-4.63-.03-9.22-.75-13.64-2.13-8.87-2.84-18.41-2.84-27.28,0s-18.41,2.84-27.28,0-18.41-2.84-27.28,0c-4.42,1.38-9.01,2.1-13.64,2.13" fill="none" stroke="#ccc" stroke-linecap="square" stroke-width="4"/>
            <path d="M218.25,27.7c-4.63-.03-9.22-.75-13.64-2.13-8.87-2.84-18.41-2.84-27.28,0s-18.41,2.84-27.28,0-18.41-2.84-27.28,0c-4.42,1.38-9.01,2.1-13.64,2.13" fill="none" stroke="#ccc" stroke-linecap="square" stroke-width="4"/>
            <rect x="0" y="12.91" width="109.13" height="25.8" fill="#e6e6e6"/>
            <path d="M109.13,36.3c-4.63-.03-9.23-.75-13.65-2.13-8.87-2.84-18.41-2.84-27.28,0-4.42,1.38-9.01,2.1-13.64,2.13-4.63-.03-9.22-.75-13.64-2.13-4.42-1.38-9.01-2.1-13.64-2.13-4.63.03-9.22.75-13.64,2.13C9.22,35.55,4.63,36.27,0,36.3" fill="none" stroke="#ccc" stroke-linecap="square" stroke-width="4"/>
            <path d="M109.13,19.1c-4.63-.03-9.23-.75-13.65-2.13-8.87-2.84-18.41-2.84-27.28,0-4.42,1.38-9.01,2.1-13.64,2.13-4.63-.03-9.22-.75-13.64-2.13-4.42-1.38-9.01-2.1-13.64-2.13-4.63.03-9.22.75-13.64,2.13C9.22,18.35,4.63,19.07,0,19.1" fill="none" stroke="#ccc" stroke-linecap="square" stroke-width="4"/>
            <path d="M109.13,27.7c-4.63-.03-9.23-.75-13.65-2.13-8.87-2.84-18.41-2.84-27.28,0-4.42,1.38-9.01,2.1-13.64,2.13-4.63-.03-9.22-.75-13.64-2.13-4.42-1.38-9.01-2.1-13.64-2.13-4.63.03-9.22.75-13.64,2.13C9.22,26.95,4.63,27.67,0,27.7" fill="none" stroke="#ccc" stroke-linecap="square" stroke-width="4"/>
            <path d="M0,36.3c-4.63-.03-9.22-.75-13.64-2.13-4.42-1.38-9.01-2.1-13.64-2.13-4.63.03-9.22.75-13.64,2.13-4.42,1.38-9.01,2.1-13.64,2.13-4.63-.03-9.22-.75-13.64-2.13-4.42-1.38-9.01-2.1-13.64-2.13-4.63.03-9.22.75-13.64,2.13-4.42,1.38-9.01,2.1-13.64,2.13" fill="none" stroke="#ccc" stroke-linecap="square" stroke-width="4"/>
            <path d="M0,19.1c-4.63-.03-9.22-.75-13.64-2.13-4.42-1.38-9.01-2.1-13.64-2.13-4.63.03-9.22.75-13.64,2.13-4.42,1.38-9.01,2.1-13.64,2.13-4.63-.03-9.22-.75-13.64-2.13-4.42-1.38-9.01-2.1-13.64-2.13-4.63.03-9.22.75-13.64,2.13-4.42,1.38-9.01,2.1-13.64,2.13" fill="none" stroke="#ccc" stroke-linecap="square" stroke-width="4"/>
            <path d="M0,27.7c-4.63-.03-9.22-.75-13.64-2.13-4.42-1.38-9.01-2.1-13.64-2.13-4.63.03-9.22.75-13.64,2.13-4.42,1.38-9.01,2.1-13.64,2.13-4.63-.03-9.22-.75-13.64-2.13-4.42-1.38-9.01-2.1-13.64-2.13-4.63.03-9.22.75-13.64,2.13-4.42,1.38-9.01,2.1-13.64,2.13" fill="none" stroke="#ccc" stroke-linecap="square" stroke-width="4"/>
            <path d="M218.25,10.5c-4.63-.03-9.22-.75-13.64-2.13-8.87-2.84-18.41-2.84-27.28,0s-18.41,2.84-27.28,0-18.41-2.84-27.28,0c-4.42,1.38-9.01,2.1-13.64,2.13" fill="none" stroke="#ccc" stroke-linecap="square" stroke-width="4"/>
            <path d="M218.25,1.89c-4.63-.03-9.22-.74-13.64-2.12-8.87-2.84-18.41-2.84-27.28,0-8.87,2.83-18.41,2.83-27.28,0-8.87-2.84-18.41-2.84-27.28,0-4.42,1.38-9.01,2.09-13.64,2.12" fill="none" stroke="#ccc" stroke-linecap="square" stroke-width="4"/>
            <rect x="0" y="-12.89" width="109.13" height="25.8" fill="#e6e6e6"/>
            <path d="M109.13,10.5c-4.63-.03-9.23-.75-13.65-2.13-8.87-2.84-18.41-2.84-27.28,0-4.42,1.38-9.01,2.1-13.64,2.13-4.63-.03-9.22-.75-13.64-2.13-4.42-1.39-9.01-2.11-13.64-2.15-4.63.03-9.22.75-13.64,2.13C9.23,9.74,4.63,10.46,0,10.5" fill="none" stroke="#ccc" stroke-linecap="square" stroke-width="4"/>
            <path d="M109.13,1.89c-4.63-.03-9.23-.74-13.65-2.12-8.87-2.84-18.41-2.84-27.28,0-4.42,1.38-9.01,2.09-13.64,2.12-4.63-.03-9.22-.74-13.64-2.12-4.41-1.39-9.01-2.1-13.64-2.13-4.63.03-9.23.74-13.64,2.13C9.22,1.15,4.63,1.86,0,1.89" fill="none" stroke="#ccc" stroke-linecap="square" stroke-width="4"/>
            <path d="M0,10.5c-4.63-.03-9.22-.75-13.64-2.13-4.42-1.39-9.01-2.11-13.64-2.15-4.63.03-9.22.75-13.64,2.13-4.42,1.38-9.01,2.1-13.64,2.13-4.63-.02-9.22-.73-13.64-2.11-4.42-1.39-9.01-2.11-13.64-2.15-4.63.03-9.22.75-13.64,2.13-4.42,1.38-9.01,2.1-13.64,2.13" fill="none" stroke="#ccc" stroke-linecap="square" stroke-width="4"/>
            <path d="M0,1.89c-4.63-.03-9.22-.74-13.64-2.12-4.41-1.39-9.01-2.1-13.64-2.13-4.63.03-9.23.74-13.64,2.13-4.42,1.38-9.01,2.09-13.64,2.12-4.63-.03-9.22-.74-13.64-2.12-4.41-1.39-9.01-2.1-13.64-2.13-4.63.02-9.23.74-13.64,2.13-4.42,1.38-9.01,2.09-13.64,2.12" fill="none" stroke="#ccc" stroke-linecap="square" stroke-width="4"/>
          </g>
        </g>
      </g>
    </pattern>
    <linearGradient id="linear-gradient-2" x1="725.6" y1="733.88" x2="719.96" y2="30.99" gradientTransform="translate(0 970) scale(1 -1)" gradientUnits="userSpaceOnUse">
      <stop offset="0" stop-color="#000"/>
      <stop offset=".1" stop-color="#111"/>
      <stop offset=".29" stop-color="#3e3e3e"/>
      <stop offset=".56" stop-color="#878787"/>
      <stop offset=".89" stop-color="#e9e9e9"/>
    </linearGradient>
    <linearGradient id="linear-gradient-3" x1="483.03" y1="365.43" x2="538.47" y2="438.72" gradientTransform="translate(0 970) scale(1 -1)" gradientUnits="userSpaceOnUse">
      <stop offset="0" stop-color="#666665"/>
      <stop offset=".02" stop-color="#6a6a69"/>
      <stop offset=".49" stop-color="#aeaeae"/>
      <stop offset=".83" stop-color="#d9d9d9"/>
      <stop offset="1" stop-color="#e9e9e9"/>
    </linearGradient>
    <linearGradient id="linear-gradient-4" x1="-236.11" y1="365.43" x2="-180.67" y2="438.72" gradientTransform="translate(728.47 970) rotate(-180)" xlink:href="#linear-gradient-3"/>
    <mask id="mask" x="0" y="-63.68" width="1440" height="1031.11" maskUnits="userSpaceOnUse">
      <g id="mask-2" data-name="mask">
        <polygon id="paper-mask" points="723.59 663.24 1041.42 439.38 1067.77 -63.68 379.91 -63.68 405.73 438.93 723.59 663.24" fill="#fff"/>
        <rect id="paper-mask-full" width="1440" height="967.43" fill="#fff"/>
      </g>
    </mask>
    <clipPath id="clippath-1">
      <rect x="0" y="0" width="109.13" height="103.21" fill="none"/>
    </clipPath>
    <pattern id="Unnamed_Pattern_2-5" data-name="Unnamed Pattern 2-5" x="0" y="0" width="109.13" height="103.22" patternTransform="translate(3320.09 -15112.1)" patternUnits="userSpaceOnUse" viewBox="0 0 109.13 103.22">
      <g>
        <rect width="109.13" height="103.22" fill="none"/>
        <rect x="0" y=".01" width="109.13" height="103.21" fill="none"/>
        <g clip-path="url(#clippath-1)">
          <g>
            <path d="M218.25,96.51c-4.63-.03-9.22-.75-13.64-2.13-4.4-1.39-8.99-2.12-13.61-2.16-4.63.03-9.22.75-13.64,2.13-8.87,2.84-18.41,2.84-27.28,0-4.43-1.38-9.03-2.1-13.67-2.13-4.63.03-9.22.75-13.64,2.13-4.42,1.38-9.01,2.1-13.64,2.13" fill="none" stroke="#ccc" stroke-linecap="square" stroke-width="4"/>
            <path d="M218.25,105.11c-4.63-.03-9.22-.75-13.64-2.13-4.41-1.38-8.99-2.1-13.61-2.13-4.64.03-9.24.75-13.67,2.13-8.87,2.84-18.41,2.84-27.28,0-4.42-1.38-9.01-2.1-13.64-2.13-4.63.03-9.22.75-13.64,2.13-4.42,1.38-9.01,2.1-13.64,2.13" fill="none" stroke="#ccc" stroke-linecap="square" stroke-width="4"/>
            <rect x="0" y="90.32" width="109.13" height="25.8" fill="#e6e6e6"/>
            <path d="M109.13,96.51c-4.63-.03-9.23-.75-13.65-2.13-4.41-1.39-9.01-2.12-13.64-2.16-4.63.04-9.23.77-13.64,2.16-4.42,1.38-9.01,2.1-13.64,2.13-4.63-.03-9.22-.75-13.64-2.13-4.41-1.39-9.01-2.12-13.64-2.16-4.63.04-9.23.77-13.64,2.16-4.42,1.38-9.01,2.1-13.64,2.13" fill="none" stroke="#ccc" stroke-linecap="square" stroke-width="4"/>
            <path d="M109.13,105.11c-4.63-.03-9.23-.75-13.65-2.13-4.42-1.38-9.01-2.1-13.64-2.13-4.63.03-9.22.75-13.64,2.13-4.42,1.38-9.01,2.1-13.64,2.13-4.63-.03-9.22-.75-13.64-2.13-4.42-1.38-9.01-2.1-13.64-2.13-4.63.03-9.22.75-13.64,2.13-4.42,1.38-9.01,2.1-13.64,2.13" fill="none" stroke="#ccc" stroke-linecap="square" stroke-width="4"/>
            <path d="M0,96.51c-4.63-.03-9.22-.75-13.64-2.13-4.41-1.39-9.01-2.12-13.64-2.16-4.63.04-9.23.77-13.64,2.16-4.42,1.38-9.01,2.1-13.64,2.13-4.63-.03-9.22-.75-13.64-2.13-4.41-1.39-9.01-2.12-13.64-2.16-4.63.04-9.23.77-13.64,2.16-4.42,1.38-9.01,2.1-13.64,2.13" fill="none" stroke="#ccc" stroke-linecap="square" stroke-width="4"/>
            <path d="M0,105.11c-4.63-.03-9.22-.75-13.64-2.13-4.42-1.38-9.01-2.1-13.64-2.13-4.63.03-9.22.75-13.64,2.13-4.42,1.38-9.01,2.1-13.64,2.13-4.63-.03-9.22-.75-13.64-2.13-4.42-1.38-9.01-2.1-13.64-2.13-4.63.03-9.22.75-13.64,2.13-4.42,1.38-9.01,2.1-13.64,2.13" fill="none" stroke="#ccc" stroke-linecap="square" stroke-width="4"/>
            <path d="M218.25,87.91c-4.63-.03-9.22-.75-13.64-2.13-4.41-1.38-8.99-2.1-13.61-2.13-4.63.03-9.22.75-13.64,2.13-8.87,2.84-18.41,2.84-27.28,0-4.42-1.38-9.01-2.1-13.64-2.13-4.63.03-9.22.75-13.64,2.13-4.42,1.38-9.01,2.1-13.64,2.13" fill="none" stroke="#ccc" stroke-linecap="square" stroke-width="4"/>
            <path d="M218.25,70.7c-4.63-.03-9.22-.74-13.64-2.12-4.41-1.38-8.99-2.1-13.61-2.13-4.63.03-9.23.74-13.64,2.13-8.87,2.83-18.41,2.83-27.28,0-4.41-1.39-9.01-2.1-13.64-2.13-4.63.02-9.23.74-13.64,2.13-4.42,1.38-9.01,2.09-13.64,2.12" fill="none" stroke="#ccc" stroke-linecap="square" stroke-width="4"/>
            <path d="M218.25,79.31c-4.63-.02-9.22-.72-13.64-2.09-4.4-1.39-8.99-2.12-13.61-2.17-4.64.04-9.25.77-13.67,2.17-8.87,2.84-18.41,2.84-27.28,0-4.42-1.38-9.01-2.1-13.64-2.13-4.63.03-9.22.75-13.64,2.13-4.42,1.38-9.01,2.1-13.64,2.13" fill="none" stroke="#ccc" stroke-linecap="square" stroke-width="4"/>
            <rect x="0" y="64.52" width="109.13" height="25.8" fill="#e6e6e6"/>
            <path d="M109.13,87.91c-4.63-.03-9.23-.75-13.65-2.13-4.42-1.38-9.01-2.1-13.64-2.13-4.63.03-9.22.75-13.64,2.13-4.42,1.38-9.01,2.1-13.64,2.13-4.63-.03-9.22-.75-13.64-2.13-4.42-1.38-9.01-2.1-13.64-2.13-4.63.03-9.22.75-13.64,2.13-4.42,1.38-9.01,2.1-13.64,2.13" fill="none" stroke="#ccc" stroke-linecap="square" stroke-width="4"/>
            <path d="M109.13,70.7c-4.63-.03-9.23-.74-13.65-2.12-4.41-1.39-9.01-2.11-13.64-2.13-4.63.03-9.23.74-13.64,2.13-4.42,1.38-9.01,2.09-13.64,2.12-4.63-.03-9.22-.74-13.64-2.12-4.41-1.39-9.01-2.1-13.64-2.13-4.63.03-9.23.74-13.64,2.13-4.42,1.38-9.01,2.09-13.64,2.12" fill="none" stroke="#ccc" stroke-linecap="square" stroke-width="4"/>
            <path d="M109.13,79.31c-4.63-.02-9.23-.72-13.65-2.09-4.42-1.38-9.01-2.1-13.64-2.13-4.63.03-9.22.75-13.64,2.13-4.42,1.38-9.01,2.1-13.64,2.13-4.63-.03-9.22-.75-13.64-2.13s-9.01-2.1-13.64-2.13c-4.63.03-9.22.75-13.64,2.13-4.42,1.37-9.01,2.07-13.64,2.09" fill="none" stroke="#ccc" stroke-linecap="square" stroke-width="4"/>
            <path d="M0,87.91c-4.63-.03-9.22-.75-13.64-2.13-4.42-1.38-9.01-2.1-13.64-2.13-4.63.03-9.22.75-13.64,2.13s-9.01,2.1-13.64,2.13c-4.63-.03-9.22-.75-13.64-2.13-4.42-1.38-9.01-2.1-13.64-2.13-4.63.03-9.22.75-13.64,2.13-4.42,1.38-9.01,2.1-13.64,2.13" fill="none" stroke="#ccc" stroke-linecap="square" stroke-width="4"/>
            <path d="M0,70.7c-4.63-.03-9.22-.74-13.64-2.12-4.41-1.39-9.01-2.1-13.64-2.13-4.63.03-9.23.74-13.64,2.13-4.42,1.38-9.01,2.09-13.64,2.12-4.63-.03-9.22-.74-13.64-2.12-4.41-1.39-9.01-2.1-13.64-2.13-4.63.02-9.23.74-13.64,2.13-4.42,1.38-9.01,2.09-13.64,2.12" fill="none" stroke="#ccc" stroke-linecap="square" stroke-width="4"/>
            <path d="M0,79.31c-4.63-.02-9.22-.72-13.64-2.09-4.42-1.38-9.01-2.1-13.64-2.13-4.63.03-9.22.75-13.64,2.13-4.42,1.38-9.01,2.1-13.64,2.13-4.63-.03-9.22-.75-13.64-2.13-4.42-1.38-9.01-2.1-13.64-2.13-4.63.03-9.22.75-13.64,2.13-4.42,1.38-9.01,2.1-13.64,2.13" fill="none" stroke="#ccc" stroke-linecap="square" stroke-width="4"/>
            <path d="M218.25,62.1c-4.63-.03-9.22-.74-13.64-2.12-4.41-1.38-8.99-2.1-13.61-2.13-4.63.03-9.23.74-13.64,2.13-8.87,2.83-18.41,2.83-27.28,0-4.41-1.39-9.01-2.1-13.64-2.13-4.63.02-9.23.74-13.64,2.13-4.42,1.38-9.01,2.09-13.64,2.12" fill="none" stroke="#ccc" stroke-linecap="square" stroke-width="4"/>
            <path d="M218.25,44.9c-4.63-.02-9.23-.74-13.64-2.13-8.87-2.84-18.41-2.84-27.28,0s-18.41,2.84-27.28,0-18.41-2.84-27.28,0c-4.42,1.39-9.01,2.1-13.64,2.13" fill="none" stroke="#ccc" stroke-linecap="square" stroke-width="4"/>
            <path d="M218.25,53.5c-4.63-.02-9.23-.74-13.64-2.13-8.87-2.83-18.41-2.83-27.28,0-8.87,2.84-18.41,2.84-27.28,0-8.87-2.83-18.41-2.83-27.28,0-4.42,1.39-9.01,2.1-13.64,2.13" fill="none" stroke="#ccc" stroke-linecap="square" stroke-width="4"/>
            <rect x="0" y="38.71" width="109.13" height="25.8" fill="#e6e6e6"/>
            <path d="M109.13,62.1c-4.63-.03-9.23-.74-13.65-2.12-4.41-1.39-9.01-2.11-13.64-2.13-4.63.03-9.23.74-13.64,2.13-4.42,1.38-9.01,2.09-13.64,2.12-4.63-.03-9.22-.74-13.64-2.12-4.41-1.39-9.01-2.1-13.64-2.13-4.63.03-9.23.74-13.64,2.13C9.22,61.36,4.63,62.07,0,62.1" fill="none" stroke="#ccc" stroke-linecap="square" stroke-width="4"/>
            <path d="M109.13,44.9c-4.63-.03-9.23-.74-13.65-2.13-8.87-2.84-18.41-2.84-27.28,0-8.87,2.84-18.41,2.84-27.28,0-4.42-1.38-9.01-2.1-13.64-2.13-4.63.03-9.22.75-13.64,2.13C9.23,44.16,4.63,44.87,0,44.9" fill="none" stroke="#ccc" stroke-linecap="square" stroke-width="4"/>
            <path d="M109.13,53.5c-4.63-.03-9.23-.74-13.65-2.13-8.87-2.83-18.41-2.83-27.28,0-8.87,2.84-18.41,2.84-27.28,0-4.42-1.39-9.01-2.11-13.64-2.15-4.63.03-9.22.74-13.64,2.12C9.23,52.74,4.63,53.47,0,53.5" fill="none" stroke="#ccc" stroke-linecap="square" stroke-width="4"/>
            <path d="M0,62.1c-4.63-.03-9.22-.74-13.64-2.12-4.41-1.39-9.01-2.1-13.64-2.13-4.63.03-9.23.74-13.64,2.13-4.42,1.38-9.01,2.09-13.64,2.12-4.63-.03-9.22-.74-13.64-2.12-4.41-1.39-9.01-2.1-13.64-2.13-4.63.02-9.23.74-13.64,2.13-4.42,1.38-9.01,2.09-13.64,2.12" fill="none" stroke="#ccc" stroke-linecap="square" stroke-width="4"/>
            <path d="M0,44.9c-4.63-.02-9.23-.74-13.64-2.13-4.42-1.38-9.01-2.1-13.64-2.13-4.63.03-9.22.75-13.64,2.13-4.41,1.39-9.01,2.1-13.64,2.13-4.63-.02-9.23-.74-13.64-2.13-4.42-1.38-9.01-2.1-13.64-2.13-4.63.03-9.22.75-13.64,2.13-4.42,1.39-9.01,2.1-13.64,2.13" fill="none" stroke="#ccc" stroke-linecap="square" stroke-width="4"/>
            <path d="M0,53.5c-4.63-.02-9.23-.74-13.64-2.13-4.42-1.39-9.01-2.11-13.64-2.15-4.63.03-9.22.74-13.64,2.12-4.41,1.39-9.01,2.1-13.64,2.13-4.63-.01-9.22-.72-13.64-2.1-4.42-1.39-9.01-2.11-13.64-2.15-4.63.03-9.22.74-13.64,2.12-4.42,1.39-9.01,2.1-13.64,2.13" fill="none" stroke="#ccc" stroke-linecap="square" stroke-width="4"/>
            <path d="M218.25,36.3c-4.63-.03-9.22-.75-13.64-2.13-8.87-2.84-18.41-2.84-27.28,0s-18.41,2.84-27.28,0-18.41-2.84-27.28,0c-4.42,1.38-9.01,2.1-13.64,2.13" fill="none" stroke="#ccc" stroke-linecap="square" stroke-width="4"/>
            <path d="M218.25,19.1c-4.63-.03-9.22-.75-13.64-2.13-8.87-2.84-18.41-2.84-27.28,0s-18.41,2.84-27.28,0-18.41-2.84-27.28,0c-4.42,1.38-9.01,2.1-13.64,2.13" fill="none" stroke="#ccc" stroke-linecap="square" stroke-width="4"/>
            <path d="M218.25,27.7c-4.63-.03-9.22-.75-13.64-2.13-8.87-2.84-18.41-2.84-27.28,0s-18.41,2.84-27.28,0-18.41-2.84-27.28,0c-4.42,1.38-9.01,2.1-13.64,2.13" fill="none" stroke="#ccc" stroke-linecap="square" stroke-width="4"/>
            <rect x="0" y="12.91" width="109.13" height="25.8" fill="#e6e6e6"/>
            <path d="M109.13,36.3c-4.63-.03-9.23-.75-13.65-2.13-8.87-2.84-18.41-2.84-27.28,0-4.42,1.38-9.01,2.1-13.64,2.13-4.63-.03-9.22-.75-13.64-2.13-4.42-1.38-9.01-2.1-13.64-2.13-4.63.03-9.22.75-13.64,2.13C9.22,35.55,4.63,36.27,0,36.3" fill="none" stroke="#ccc" stroke-linecap="square" stroke-width="4"/>
            <path d="M109.13,19.1c-4.63-.03-9.23-.75-13.65-2.13-8.87-2.84-18.41-2.84-27.28,0-4.42,1.38-9.01,2.1-13.64,2.13-4.63-.03-9.22-.75-13.64-2.13-4.42-1.38-9.01-2.1-13.64-2.13-4.63.03-9.22.75-13.64,2.13C9.22,18.35,4.63,19.07,0,19.1" fill="none" stroke="#ccc" stroke-linecap="square" stroke-width="4"/>
            <path d="M109.13,27.7c-4.63-.03-9.23-.75-13.65-2.13-8.87-2.84-18.41-2.84-27.28,0-4.42,1.38-9.01,2.1-13.64,2.13-4.63-.03-9.22-.75-13.64-2.13-4.42-1.38-9.01-2.1-13.64-2.13-4.63.03-9.22.75-13.64,2.13C9.22,26.95,4.63,27.67,0,27.7" fill="none" stroke="#ccc" stroke-linecap="square" stroke-width="4"/>
            <path d="M0,36.3c-4.63-.03-9.22-.75-13.64-2.13-4.42-1.38-9.01-2.1-13.64-2.13-4.63.03-9.22.75-13.64,2.13-4.42,1.38-9.01,2.1-13.64,2.13-4.63-.03-9.22-.75-13.64-2.13-4.42-1.38-9.01-2.1-13.64-2.13-4.63.03-9.22.75-13.64,2.13-4.42,1.38-9.01,2.1-13.64,2.13" fill="none" stroke="#ccc" stroke-linecap="square" stroke-width="4"/>
            <path d="M0,19.1c-4.63-.03-9.22-.75-13.64-2.13-4.42-1.38-9.01-2.1-13.64-2.13-4.63.03-9.22.75-13.64,2.13-4.42,1.38-9.01,2.1-13.64,2.13-4.63-.03-9.22-.75-13.64-2.13-4.42-1.38-9.01-2.1-13.64-2.13-4.63.03-9.22.75-13.64,2.13-4.42,1.38-9.01,2.1-13.64,2.13" fill="none" stroke="#ccc" stroke-linecap="square" stroke-width="4"/>
            <path d="M0,27.7c-4.63-.03-9.22-.75-13.64-2.13-4.42-1.38-9.01-2.1-13.64-2.13-4.63.03-9.22.75-13.64,2.13-4.42,1.38-9.01,2.1-13.64,2.13-4.63-.03-9.22-.75-13.64-2.13-4.42-1.38-9.01-2.1-13.64-2.13-4.63.03-9.22.75-13.64,2.13-4.42,1.38-9.01,2.1-13.64,2.13" fill="none" stroke="#ccc" stroke-linecap="square" stroke-width="4"/>
            <path d="M218.25,10.5c-4.63-.03-9.22-.75-13.64-2.13-8.87-2.84-18.41-2.84-27.28,0s-18.41,2.84-27.28,0-18.41-2.84-27.28,0c-4.42,1.38-9.01,2.1-13.64,2.13" fill="none" stroke="#ccc" stroke-linecap="square" stroke-width="4"/>
            <path d="M218.25,1.89c-4.63-.03-9.22-.74-13.64-2.12-8.87-2.84-18.41-2.84-27.28,0-8.87,2.83-18.41,2.83-27.28,0-8.87-2.84-18.41-2.84-27.28,0-4.42,1.38-9.01,2.09-13.64,2.12" fill="none" stroke="#ccc" stroke-linecap="square" stroke-width="4"/>
            <rect x="0" y="-12.89" width="109.13" height="25.8" fill="#e6e6e6"/>
            <path d="M109.13,10.5c-4.63-.03-9.23-.75-13.65-2.13-8.87-2.84-18.41-2.84-27.28,0-4.42,1.38-9.01,2.1-13.64,2.13-4.63-.03-9.22-.75-13.64-2.13-4.42-1.39-9.01-2.11-13.64-2.15-4.63.03-9.22.75-13.64,2.13C9.23,9.74,4.63,10.46,0,10.5" fill="none" stroke="#ccc" stroke-linecap="square" stroke-width="4"/>
            <path d="M109.13,1.89c-4.63-.03-9.23-.74-13.65-2.12-8.87-2.84-18.41-2.84-27.28,0-4.42,1.38-9.01,2.09-13.64,2.12-4.63-.03-9.22-.74-13.64-2.12-4.41-1.39-9.01-2.1-13.64-2.13-4.63.03-9.23.74-13.64,2.13C9.22,1.15,4.63,1.86,0,1.89" fill="none" stroke="#ccc" stroke-linecap="square" stroke-width="4"/>
            <path d="M0,10.5c-4.63-.03-9.22-.75-13.64-2.13-4.42-1.39-9.01-2.11-13.64-2.15-4.63.03-9.22.75-13.64,2.13-4.42,1.38-9.01,2.1-13.64,2.13-4.63-.02-9.22-.73-13.64-2.11-4.42-1.39-9.01-2.11-13.64-2.15-4.63.03-9.22.75-13.64,2.13-4.42,1.38-9.01,2.1-13.64,2.13" fill="none" stroke="#ccc" stroke-linecap="square" stroke-width="4"/>
            <path d="M0,1.89c-4.63-.03-9.22-.74-13.64-2.12-4.41-1.39-9.01-2.1-13.64-2.13-4.63.03-9.23.74-13.64,2.13-4.42,1.38-9.01,2.09-13.64,2.12-4.63-.03-9.22-.74-13.64-2.12-4.41-1.39-9.01-2.1-13.64-2.13-4.63.02-9.23.74-13.64,2.13-4.42,1.38-9.01,2.09-13.64,2.12" fill="none" stroke="#ccc" stroke-linecap="square" stroke-width="4"/>
          </g>
        </g>
      </g>
    </pattern>
  </defs>
  <g id="envelope">
    <rect id="body" x="373.96" y="358.5" width="699.86" height="513.27" fill="url(#linear-gradient)"/>
    <g id="accents">
      <polygon id="accent-left" points="657.7 629.39 662.82 632.9 373.82 826.25 373.82 820.9 657.7 629.39" fill="#f2f2f2"/>
      <polygon id="accent-right" points="792.43 627.67 787.89 630.78 1073.65 831.6 1073.65 824.98 792.43 627.67" fill="#f2f2f2"/>
    </g>
    <g id="pattern-bottom" opacity=".6">
      <polygon points="1038.53 441.35 1038.53 358.51 410.04 358.51 410.14 442.08 723.8 658.37 1038.53 441.35" fill="url(#Unnamed_Pattern_2)"/>
      <polygon points="1038.53 441.35 1038.53 358.51 410.04 358.51 410.14 442.08 723.8 658.37 1038.53 441.35" fill="url(#linear-gradient-2)" isolation="isolate" opacity=".2"/>
    </g>
    <g id="shadows-inner">
      <polygon points="373.96 376.55 398.28 451.65 723.8 674.7 723.8 674.7 723.8 658.37 405.76 439 373.96 360.34 373.96 376.55" fill="url(#linear-gradient-3)"/>
      <polygon points="1073.65 376.55 1049.33 451.65 723.8 674.7 723.8 674.7 723.8 658.37 1041.85 439 1073.65 360.34 1073.65 376.55" fill="url(#linear-gradient-4)"/>
    </g>
    <path id="closed" d="M743.72,358.46h-369c-.44-.01-.8.33-.81.77,0,.05,0,.1.01.15l12.26,83.62c0,.21,321.47,228.86,321.47,228.86l15.72,11.17c.31.18.69.18,1,0,.28-.19,7.36-5.22,15.73-11.19l321-229.1c.17-.12,12.66-83.4,12.66-83.4.07-.43-.22-.84-.65-.91-.05,0-.1-.01-.15-.01l-329.24.04Z" fill="#fff"/>
    <polygon id="pattern-top" points="1038.57 351.16 1016.94 283.37 725.33 80.91 724.4 80.28 724.28 80.36 724.17 80.28 723.24 80.91 431.63 283.37 410 351.16 410.04 358.47 724.28 358.47 1038.53 358.47 1038.57 351.16" fill="url(#Unnamed_Pattern_2)"/>
    <g mask="url(#mask)">
      <polygon id="paper" points="406 799.53 406 369.65 1041.18 369.65 1041.18 800.92 406 799.53" fill="#f2f2f2" stroke="#fff" stroke-miterlimit="10" stroke-width="9.18"/>
    </g>
    <g id="button">
      <path d="M771.45,672.32c0,26.56-21.52,48.09-48.08,48.1s-48.09-21.52-48.1-48.08,21.52-48.09,48.08-48.1h0c26.56,0,48.08,21.52,48.09,48.08" fill="url(#Unnamed_Pattern_2-5)"/>
      <circle cx="723.36" cy="672.32" r="48.09" fill="none" stroke="#fff" stroke-miterlimit="10" stroke-width=".5"/>
      <path d="M717.05,652.19c4.87-2.05,9.68-1.8,14,1.28,4.73,3.35,4.13,9.26,1.41,12.57-.89,1.08-1.17,1.14-2.41.43-.84-.49-1.62-1.08-2.43-1.63-.54-.38-.55-.81-.26-1.39.48-.93.78-1.95.87-3,0-2.79-2.45-4.64-5.61-4.4-2.27.19-4,1.14-4.8,3.3-.85,2-.2,4.32,1.56,5.6,1.51,1.14,3.09,2.18,4.74,3.12,2.77,1.66,5.67,3.15,8.37,4.92,2.43,1.48,4.15,3.89,4.76,6.67.91,4.75-1.35,9.55-5.6,11.87-2.91,1.62-6.22,2.42-9.55,2.31-3.32.04-6.58-.87-9.4-2.62-1.22-.82-2.26-1.88-3.06-3.11.35-.18.68-.38,1-.61.62-.38,1.19-.83,1.71-1.34-.6.21-1.21.35-1.84.44-.54.1-1.1.15-1.65.15-1.48.01-2.95-.26-4.33-.8-.35-.11-.64-.37-.76-.72-.12-.34-.07-.71.13-1l1.51-3c.36-.72.88-.81,1.67-.51,2.13.86,4.58.15,5.92-1.72.49-.69,1-.85,1.68-.46l3,1.66c.34.15.59.44.69.79.08.35,0,.72-.23,1-.82,1.14-1.83,2.12-3,2.9.77,1.32,1.97,2.33,3.39,2.89,2.46,1.05,5.23,1.14,7.75.24,4.7-1.58,6.38-7.64,2.18-10.91-1.73-1.27-3.54-2.41-5.42-3.43-2.37-1.39-4.88-2.56-7.17-4.06-2.62-1.53-4.36-4.19-4.72-7.2-.63-4.37,1.84-8.6,5.95-10.22" fill="#4d4d4d"/>
    </g>
    <path id="arrow" d="M719,563.15l4,6.17,3.91-6c1.19-1.82,3-4.84,3.92-6.73l1.52-2.93-.52-.17-2.24,2.82c-1.39,1.75-3.49,4.66-4.67,6.48l-1.55,2.39.3-3.77c.22-2.88.41-7.57.41-10.46v-14.44c0-2.88-.19-7.58-.41-10.45l-.37-4.62h-.6l-.37,4.62c-.23,2.88-.41,7.57-.41,10.45v14.42c0,2.88.18,7.57.41,10.46l.3,3.77-1.63-2.54c-1.19-1.82-3.28-4.73-4.67-6.49l-2.12-2.67-.56.19,1.43,2.77c1,1.88,2.74,4.9,3.93,6.73" fill="#4d4d4d"/>
    <g id="text">
      <path d="M646.52,493.41c-.77-.54-1.37-1.29-1.73-2.16-.38-.91-.57-1.89-.56-2.88.03-2.15.54-4.26,1.51-6.18.92-1.95,2.24-3.69,3.87-5.11,1.28-1.22,2.97-1.93,4.74-2,.64-.03,1.27.16,1.79.53.48.4.73,1.02.68,1.64-.02.75-.17,1.49-.44,2.19-.26.76-.64,1.47-1.12,2.11-.3.48-.81.8-1.37.86-.45-.02-.85-.31-1-.73.65-.74,1.24-1.54,1.75-2.38.47-.66.76-1.43.84-2.24,0-.62-.36-.93-1.07-.93-1.11,0-2.29.68-3.53,2-1.32,1.47-2.38,3.16-3.12,5-.78,1.72-1.2,3.58-1.25,5.47-.04,1.13.26,2.25.86,3.21.57.88,1.58,1.38,2.63,1.29.89-.01,1.75-.25,2.52-.7.88-.49,1.68-1.12,2.36-1.87.69-.75,1.27-1.6,1.71-2.52l.62.4c-.82,1.62-1.97,3.05-3.37,4.2-1.23,1.05-2.79,1.63-4.41,1.63-1.03.04-2.05-.25-2.9-.83" fill="#666"/>
      <path d="M656.53,492.2c-.34-.55-.5-1.19-.47-1.83.13-2.03.64-4.01,1.49-5.86.91-2.29,2.03-4.49,3.34-6.57,1.24-1.93,2.15-2.9,2.74-2.9.27,0,.5.21.69.63.18.4.29.83.31,1.27-.1,1.11-.4,2.2-.89,3.21-.64,1.5-1.43,2.93-2.36,4.27-.88,1.32-1.95,2.5-3.18,3.49-.14.74-.23,1.49-.26,2.24-.03.43.06.86.27,1.24.16.26.45.41.75.4.72-.09,1.37-.5,1.77-1.1.68-.81,1.24-1.72,1.68-2.68l.57.31c-.56,1.25-1.34,2.39-2.31,3.37-.68.73-1.62,1.16-2.61,1.2-.59.05-1.17-.21-1.53-.69M661.04,483.2c.7-1.12,1.31-2.3,1.81-3.52.37-.78.6-1.61.68-2.47-.21,0-.62.48-1.25,1.45-.74,1.16-1.41,2.36-2,3.6-.66,1.35-1.22,2.75-1.68,4.18.91-.99,1.71-2.08,2.4-3.24" fill="#666"/>
      <path d="M662.2,492.29c-.38-.41-.57-.96-.55-1.52.05-.88.23-1.75.54-2.58.32-1.01.77-1.98,1.35-2.87.55-.82,1.1-1.24,1.66-1.24.19,0,.37.06.51.18.14.13.21.32.2.51-.02.21-.08.41-.19.59-.13.24-.33.59-.62,1.06-.44.72-.84,1.46-1.2,2.22-.27.57-.42,1.19-.44,1.82-.04.35.05.71.26,1,.22.19.52.28.81.26,1.25,0,2.5-1.21,3.74-3.64l.35.38c-.45,1.24-1.17,2.35-2.12,3.26-.73.73-1.72,1.15-2.75,1.17-.58.03-1.14-.18-1.55-.6M665.71,481.92c-.23-.15-.36-.41-.35-.69,0-.42.24-.8.61-1,.38-.26.84-.41,1.3-.41.68,0,1,.29,1,.88-.02.4-.22.77-.55,1-.33.3-.75.46-1.19.47-.3,0-.59-.07-.84-.24" fill="#666"/>
      <path d="M668.28,492.71c-.56-.64-.84-1.49-.78-2.34,0-1.05.27-2.08.78-3,.47-.93,1.16-1.73,2-2.35.71-.57,1.59-.89,2.5-.91.52-.04,1.03.13,1.41.48.31.32.48.75.47,1.19,0,.46-.12.92-.35,1.32-.15.34-.47.57-.84.6-.31,0-.59-.18-.74-.45.23-.17.41-.4.52-.66.17-.35.25-.73.24-1.12,0-.27-.15-.41-.45-.41-.65.07-1.24.4-1.64.91-.62.64-1.12,1.38-1.48,2.19-.37.72-.57,1.52-.59,2.33-.02.45.11.9.38,1.27.33.37.82.56,1.31.51.66-.01,1.31-.19,1.89-.52.7-.38,1.32-.89,1.84-1.49.58-.66,1.04-1.41,1.36-2.22l.47.43c-.37.94-.91,1.81-1.58,2.57-.63.73-1.4,1.34-2.25,1.79-.74.42-1.57.64-2.42.66-.77.04-1.52-.25-2.06-.8" fill="#666"/>
      <path d="M681.54,492.33c-.44-.53-.76-1.14-.95-1.8-.19-.61-.29-1.24-.31-1.88,2.05-.46,3.07-1.16,3.07-2.12,0-.26-.09-.51-.27-.69-.22-.18-.5-.28-.78-.26-1.12.11-2.1.82-2.55,1.85-.8,1.36-1.47,2.79-2,4.27-.11.36-.28.7-.5,1-.18.18-.43.27-.69.25-.26,0-.5-.12-.66-.33-.23-.45-.32-.95-.27-1.45.08-2.23.56-4.44,1.4-6.51.84-2.31,1.91-4.52,3.21-6.6,1.21-1.89,2.13-2.84,2.76-2.84.3.02.57.22.68.5.2.38.3.81.28,1.24-.03.86-.25,1.69-.63,2.46-.45.97-1.05,1.88-1.76,2.68-.73.84-1.59,1.55-2.54,2.12-.4.97-.74,1.98-1,3-.23.9-.39,1.82-.47,2.75,1.71-3.93,3.47-5.9,5.28-5.9.62,0,1.22.24,1.66.68.47.42.73,1.02.72,1.65,0,.56-.21,1.11-.6,1.51-.38.44-.86.78-1.4,1-.45.19-.94.31-1.43.34.14.67.36,1.32.66,1.94.19.51.68.85,1.22.85.74-.1,1.4-.51,1.81-1.13.7-.88,1.29-1.84,1.74-2.87l.33.4c-.41,1.23-1.05,2.36-1.9,3.33-.6.82-1.52,1.33-2.53,1.41-.61,0-1.19-.27-1.57-.75M681.85,480.2c.58-.78.93-1.71,1-2.68-.55.46-1,1.03-1.31,1.67-.68,1.11-1.28,2.27-1.81,3.47.82-.72,1.53-1.55,2.13-2.46" fill="#666"/>
      <path d="M693.11,492.32c-.18-.63-.26-1.28-.24-1.93.13-2,.58-3.97,1.34-5.82.81-2.29,1.85-4.49,3.09-6.57,1.15-1.9,2.1-2.86,2.83-2.86.33.01.63.22.75.53.18.36.28.76.27,1.16-.07,1.02-.34,2.02-.8,2.93-.55,1.26-1.25,2.44-2.09,3.53-.72,1-1.63,1.86-2.68,2.51-.51,1.29-.79,2.66-.81,4.05v.5c.08-.17.15-.34.21-.52.29-.77.62-1.51,1-2.24.37-.7.86-1.33,1.44-1.87.57-.56,1.33-.87,2.13-.87.61-.05,1.21.21,1.59.7.34.48.52,1.07.5,1.66,0,.34-.04.68-.14,1-.09.32-.24.72-.43,1.21l-.18.45c-.07.2-.14.4-.19.61-.04.16-.06.33-.06.49,0,.51.22.76.65.76.45-.04.88-.22,1.23-.52.53-.4,1-.87,1.41-1.4.46-.59.86-1.23,1.19-1.91l.38.41c-.51,1.18-1.23,2.25-2.13,3.16-.69.75-1.66,1.18-2.68,1.21-.5.03-.99-.14-1.37-.46-.32-.31-.5-.75-.48-1.2.05-.58.16-1.15.33-1.71.2-.56.32-1.15.36-1.74,0-.67-.29-1-.86-1-.6.02-1.15.36-1.44.89-.51.84-.95,1.72-1.32,2.63-.29.76-.64,1.5-1.05,2.2-.18.4-.56.68-1,.73-.34,0-.58-.26-.74-.76M698,482c.57-.87,1.06-1.78,1.48-2.73.3-.59.49-1.23.57-1.89-.4.32-.74.71-1,1.15-.58.83-1.1,1.7-1.55,2.6-.53,1.02-.98,2.07-1.36,3.15.72-.68,1.34-1.44,1.86-2.28" fill="#666"/>
      <path d="M704.93,492.41c-.55-.54-.85-1.29-.83-2.07.04-1.06.36-2.1.93-3,.6-1.05,1.41-1.97,2.38-2.69.8-.67,1.81-1.05,2.85-1.09.44-.01.88.12,1.24.37.36.31.54.76.5,1.23-.01.8-.33,1.57-.88,2.15-.63.71-1.4,1.28-2.27,1.66-.9.41-1.86.68-2.85.8-.02.18-.02.37,0,.55,0,.44.12.86.34,1.24.34.47.92.7,1.49.62,1.11-.04,2.17-.45,3-1.18,1.01-.8,1.84-1.8,2.44-2.94l.48.38c-.59,1.37-1.53,2.56-2.73,3.45-1.05.83-2.34,1.29-3.67,1.31-.86.05-1.7-.24-2.34-.81M708.26,488.2c.68-.37,1.3-.87,1.8-1.46.44-.46.7-1.06.74-1.7.01-.13-.02-.26-.1-.36-.09-.07-.2-.1-.31-.09-.56.04-1.1.27-1.51.65-.58.48-1.09,1.04-1.51,1.66-.43.62-.76,1.29-1,2,.68-.1,1.33-.33,1.91-.69" fill="#666"/>
      <path d="M715.59,492.33c-.36-.31-.56-.77-.54-1.25,0-.34.07-.68.18-1,.15-.44.32-.88.53-1.3.18-.37.34-.75.48-1.13.1-.26.15-.54.16-.82,0-.6-.39-1.11-1.19-1.52-.32.82-.69,1.62-1.1,2.4-.42.81-.8,1.5-1.13,2l-.36-.69c.76-1.38,1.41-2.82,1.93-4.31-.17-.17-.25-.4-.24-.64,0-.42.14-.83.38-1.17.25-.36.5-.54.74-.54.17,0,.33.12.39.28.09.15.14.31.16.48-.02.14-.06.28-.11.42l-.16.46c.03.12.09.24.19.32.2.16.4.31.62.44.47.3.91.66,1.3,1.06.32.38.48.87.46,1.37,0,.34-.06.68-.17,1-.16.43-.34.86-.54,1.27-.27.46-.45.97-.52,1.5,0,.36.19.54.59.54.57-.03,1.11-.23,1.56-.57.58-.39,1.1-.86,1.55-1.39.4-.47.73-.99,1-1.54l.57.43c-.33.75-.78,1.44-1.33,2.05-.55.63-1.2,1.17-1.92,1.59-.62.39-1.34.61-2.08.62-.52.02-1.02-.14-1.43-.46" fill="#666"/>
      <path d="M721.69,492.41c-.56-.54-.87-1.29-.84-2.07.04-1.06.36-2.1.93-3,.6-1.05,1.41-1.97,2.38-2.69.81-.67,1.81-1.05,2.86-1.09.44-.02.87.11,1.23.37.36.3.55.76.5,1.23-.01.8-.33,1.57-.88,2.15-.62.72-1.4,1.3-2.27,1.69-.9.41-1.86.68-2.84.8-.02.18-.02.37,0,.55,0,.44.12.86.34,1.24.34.47.92.7,1.49.62,1.11-.03,2.17-.45,3-1.18,1.01-.8,1.84-1.8,2.44-2.94l.48.38c-.59,1.37-1.53,2.56-2.73,3.45-1.05.83-2.34,1.29-3.67,1.31-.85.05-1.69-.24-2.33-.81M725.02,488.23c.68-.37,1.3-.87,1.8-1.46.44-.46.7-1.06.74-1.7.02-.13-.02-.26-.1-.36-.09-.07-.2-.1-.31-.09-.56.04-1.1.27-1.51.65-1.15.97-2.03,2.23-2.53,3.65.68-.1,1.33-.33,1.91-.69" fill="#666"/>
      <path d="M736,492.64c-.44-.52-.67-1.19-.62-1.87.03-.8.15-1.6.36-2.37.28-1.04.61-2.06,1-3.06-.28-.05-.56-.12-.83-.21v-.74c.38.05.76.09,1.14.12.62-1.61,1.39-3.16,2.3-4.62.81-1.28,1.48-1.92,2-1.92.37,0,.67.3.67.67,0,0,0,.01,0,.02-.04.35-.15.69-.33,1-.23.43-.59,1.08-1.1,1.95-.7,1.18-1.24,2.16-1.64,2.95,1.82,0,3.28-.05,4.35-.16v.78c-1.87.19-3.46.29-4.78.29-.71,1.5-1.13,3.12-1.24,4.78-.04.48.07.96.31,1.38.25.29.62.44,1,.4.9-.05,1.75-.41,2.41-1.03.91-.83,1.65-1.83,2.18-2.94l.33.24c-.57,1.37-1.43,2.6-2.52,3.61-.86.85-2.01,1.35-3.22,1.39-.63.04-1.25-.19-1.71-.63" fill="#666"/>
      <path d="M742.57,492.29c-.31-.47-.46-1.03-.44-1.59,0-.71.15-1.41.41-2.07.24-.66.61-1.27,1.09-1.79.33-.42.82-.67,1.35-.71.26.02.51.08.74.19.07-.67.33-1.3.77-1.81.46-.49,1.11-.75,1.78-.71.52-.04,1.04.15,1.4.53.31.4.47.89.45,1.4-.02.66-.17,1.3-.44,1.9-.31.75-.69,1.46-1.13,2.14.21.1.44.15.67.14,1.13-.06,2.13-.75,2.59-1.78l.43.31c-.28.69-.74,1.29-1.34,1.74-.51.37-1.12.58-1.75.59-.41,0-.81-.08-1.19-.21-.56.66-1.21,1.24-1.93,1.71-.59.4-1.28.64-2,.67-.55.05-1.09-.2-1.41-.65M745.94,491.29c.45-.36.86-.77,1.23-1.22-.95-.91-1.47-2.18-1.42-3.5-.3.23-.54.53-.69.88-.28.53-.51,1.08-.69,1.65-.18.51-.27,1.04-.29,1.57,0,.73.27,1.09.81,1.09.37-.06.72-.22,1-.47M748.73,487.48c.24-.54.37-1.12.39-1.71,0-.7-.22-1.05-.66-1.05-.25.02-.48.13-.65.31-.24.23-.42.51-.54.82-.15.36-.23.74-.22,1.13.01.42.08.84.19,1.25.09.39.26.76.5,1.08.4-.57.73-1.19,1-1.83" fill="#666"/>
      <path d="M757.61,492.29c-.31-.47-.46-1.03-.44-1.59.03-1.42.56-2.79,1.49-3.86.33-.42.83-.67,1.36-.71.26.02.51.08.74.19.07-.67.33-1.3.77-1.81.46-.49,1.1-.75,1.77-.71.53-.04,1.04.15,1.41.53.31.4.47.89.45,1.4-.02.66-.17,1.3-.44,1.9-.31.75-.69,1.46-1.13,2.14.21.1.44.15.67.14.5-.02,1-.17,1.42-.44.52-.31.94-.78,1.17-1.34l.43.31c-.28.69-.75,1.3-1.35,1.74-.5.37-1.11.58-1.74.59-.41,0-.81-.08-1.19-.21-.56.66-1.21,1.24-1.93,1.71-.61.41-1.32.65-2.05.67-.55.05-1.09-.2-1.41-.65M760.93,491.29c.45-.36.86-.77,1.23-1.22-.95-.91-1.47-2.18-1.43-3.5-.3.23-.54.53-.69.88-.28.53-.51,1.08-.69,1.65-.17.51-.27,1.04-.28,1.57,0,.73.27,1.09.81,1.09.37-.06.72-.22,1-.47M763.72,487.48c.24-.54.37-1.12.39-1.71,0-.7-.22-1.05-.66-1.05-.25.02-.48.13-.65.31-.24.23-.42.51-.54.82-.15.36-.23.74-.22,1.13,0,.42.07.84.19,1.25.09.39.26.76.5,1.08.4-.57.73-1.19,1-1.83" fill="#666"/>
      <path d="M764.36,498.62c-.21-.14-.33-.27-.34-.38.7-2,1.21-3.59,1.53-4.77.34-1.2.61-2.43.81-3.66.22-1.3.5-3.28.85-6,0-.16.05-.31.13-.45,0-.07.2-.1.44-.1.39-.03.77.11,1.05.37.23.24.36.56.35.89-.05.75-.16,1.5-.33,2.24.47-.74,1.06-1.4,1.75-1.94.6-.5,1.35-.77,2.13-.78.73-.02,1.43.27,1.93.8.51.56.79,1.3.76,2.06-.03.94-.29,1.86-.75,2.68-.5.94-1.22,1.75-2.09,2.36-.86.66-1.92,1.01-3,1-.41.01-.82-.06-1.2-.2-.31-.12-.46-.26-.46-.42s.19-.24.57-.24c.91,0,1.8-.28,2.57-.77.73-.47,1.34-1.11,1.78-1.87.41-.67.63-1.44.65-2.22.02-.44-.1-.88-.34-1.26-.22-.33-.6-.52-1-.5-.56.03-1.09.24-1.52.61-.53.42-1.01.91-1.4,1.46-.37.5-.69,1.03-.95,1.6-.27.93-.62,2.28-1.05,4-.32,1.45-.71,2.89-1.18,4.3-.32.91-.7,1.37-1.13,1.37-.22,0-.43-.09-.61-.22" fill="#666"/>
      <path d="M776.56,492.41c-.56-.54-.86-1.29-.83-2.07.04-1.06.36-2.1.92-3,.6-1.05,1.41-1.97,2.38-2.69.81-.67,1.81-1.05,2.86-1.09.44-.01.88.12,1.24.37.36.31.54.76.5,1.23-.02.8-.33,1.57-.88,2.15-.63.71-1.41,1.28-2.28,1.66-.9.42-1.86.69-2.84.8-.02.18-.02.37,0,.55,0,.44.13.86.35,1.24.34.47.91.7,1.48.62,1.11-.04,2.16-.46,3-1.18,1.01-.8,1.84-1.8,2.44-2.94l.47.38c-.58,1.37-1.52,2.56-2.72,3.45-1.05.83-2.34,1.29-3.68,1.31-.85.05-1.69-.24-2.33-.81M779.89,488.2c.68-.37,1.29-.87,1.79-1.46.44-.46.71-1.06.74-1.7.01-.13-.02-.25-.09-.36-.09-.07-.2-.1-.31-.09-.56.04-1.1.27-1.51.65-.59.48-1.1,1.03-1.52,1.66-.43.62-.76,1.29-1,2,.68-.1,1.33-.33,1.92-.69" fill="#666"/>
      <path d="M790.86,492.2c-.33-.3-.52-.74-.5-1.19,0-.24.04-.49.11-.72.07-.27.14-.54.22-.81.19-.52.3-1.06.34-1.61.02-.26-.07-.51-.24-.71-.16-.15-.38-.23-.6-.22-1.04.12-1.98.7-2.54,1.58-1.01,1.27-1.93,2.61-2.76,4-.6.04-1.18-.22-1.55-.69l.21-.59c.78-1.58,1.27-3.29,1.45-5.04.16-.16.34-.29.55-.39.21-.12.45-.18.69-.18.22-.02.44.05.61.19.15.13.23.32.22.52-.05.72-.19,1.43-.41,2.12.64-.87,1.39-1.65,2.23-2.33.63-.55,1.43-.86,2.27-.9.57-.03,1.12.21,1.48.65.35.44.53,1,.52,1.56,0,.34-.04.67-.13,1-.11.36-.24.72-.39,1.07-.22.47-.36.98-.41,1.5-.02.19.05.38.17.52.1.11.25.17.4.17.7-.1,1.32-.49,1.7-1.08.65-.78,1.21-1.64,1.66-2.56l.4.33c-.46,1.14-1.09,2.19-1.89,3.12-.58.71-1.45,1.13-2.37,1.14-.51.03-1.01-.13-1.4-.45" fill="#666"/>
      <path d="M795.77,492.21c-.18-.15-.29-.37-.27-.61.03-.32.21-.61.49-.77.31-.23.68-.35,1.06-.35.54,0,.81.25.81.74-.02.32-.18.62-.44.81-.27.25-.63.39-1,.38-.24,0-.48-.06-.68-.2M797,489.6c.03-.64.15-1.27.36-1.88.24-.74.55-1.61.93-2.61,1.23-3.19,2.28-5.67,3.13-7.43s1.58-2.68,2.19-2.68c.18,0,.35.08.47.22.13.13.2.31.2.49-.29,1.22-.75,2.4-1.36,3.49-.9,1.91-1.93,3.92-3.08,6.05-1.15,2.13-2.02,3.6-2.6,4.41l-.24-.06Z" fill="#666"/>
    </g>
    <rect id="dummy" width="1440" height="967.43" fill="none"/>
  </g>
</svg>